<svg xmlns="http://www.w3.org/2000/svg" style="background: transparent; background-color: transparent;" xmlns:xlink="http://www.w3.org/1999/xlink" version="1.1" width="701px" height="944px" viewBox="-0.5 -0.5 701 944" content="&lt;mxfile&gt;&lt;diagram id=&quot;VndGa2zGvYzWXFOHkhN8&quot; name=&quot;ページ1&quot;&gt;7Vvbbts4EP0aA8mDA1FX59F24m6BLlBsumh3XwJaYmQhtOil6Fu/fkmJupFU7SaykwBugkIc8TpzzpAzYgbOdLn7ROFq8SeJEB7YVrQbOHcD2/aBy/8Xgn0hcMFtIYhpEhUiUAsekp9ICi0pXScRyloVGSGYJau2MCRpikJWyGRbSCnZtqs9EdwedQVjpAkeQoh16fckYotCOrKDWv4HSuKFHBkAX65vCcvKcjbZAkZk2xA59wNnSglhxdNyN0VY6K7US9Fu1vG2mhhFKTumgTMqWmwgXsvFDWwf87aTJ8K7sP1YPI+/P/BKU0zWUfma99msIZfD9qWOViRJWa5nb8J/+TSm1sDjb6aidGN7ikAtB20B0Euij7ZALQdtAVC7B8r4QJ1gQ6CVWt1byvhWY4L815mQNcNJiqYVIi0ujCmMEm6pKcGEcllKUq69yYItMS8B/rhdJAw9rGAotLrlZJKGkZwAXlmWihe9ctQzyMeispxbAtH7DSoMUtTBGK6yZF61oihc0yzZoL9QVnQupByfK/G83MWCyTdwm7k3MSXrVT79z3ws49tH/vgYCrw8whwuGaPkGZULHdgO/5kJTE6eEowVBWwQZQmn2xgnseifETEclCWMnvIeuVaSNP6Sl+4cS2rCNEQEswWK5JJ0ikjWiFHRriGSlPmEyBIxuudV5Fs7kPSV/gt4srytvUFgSdmi4QlGpQeD0gPFVd81SfmD5GkHZ4OjOAtXw5RQtkAwY0Nw9Y0878n1hb0X9h7BXoriRLzTaWtZY3fsn5S2wA3uJ+MmbUFPtL1t05avRqOt7xtoG/RCW/c42m6zYcbW0X64WYXH0jV7RixcSKufEawvBhhfm22C12jqzmazk8JrPJ4Ek9EJdgUHtOFVlZvwsg3w8nuBl6XBa7yBCYbzBCdMTPNfoUYJqDk1bxOhBi2DITSrmRlrtpcKoS7ym+DYQKvqJpdkAwt3CHJ3yL1gs0wYZI0yj0dQs4yipFnEJHyukCGDiMZrlRU9YMd3FOwEOnbskQE7ntMDduzbPrADPwp23hIrKm778Dtvix27c1vjvjhtAcL/by0CW3F+ETYb85c0nl85vjh22RYoH2zrOldNWb/e907Ucb3prtZznITDbD1PUeEPqx24GLU9k5oLV8C6sW7ADVfpzHavO9tdDtqXg3Z9DspEd9zFPtaVH3IPWXasustgPAZAPX9z+cye+fejHmNndzQC7glOSb7X9laubfBWrsFb1Rm813groHmrmvsl6WEXu62a3RcaX2j8YWl8zgNQHwecN3UZjnMgbjecQ8SLYQEscRYB3mp34NwB8by/YL8rD9rBQAWDVQzeRq2s3AJSidIvcI7wV5IlLE8b3c0JY2R5EMYhElRt+4Am320D32G2Khb6lOzEPDTCgy4iw9WKH+2gmOIjJjB6nEMM0zCfgMnzYLGoCQyfBanTqNRDhJ7gGrN+oO0pmWTP0qENTJnkSvgaaPs6tBsnYZpsIEOHd0Vw2Rbf97YIPsy2aMwuc/m9P/NnQX/bop506CsWV7aqKp18lq3K11PM3XwOO/kMLny+8PnCZ1O0el4+O3pureYzjbJfHw2NZDUS1kRaI3F18raq5XQyjKAKTbJAFwK9WslAXWiSmdyN2hoYWgOldTfZu07aCt6nt7ZXHExVhjzl/858rjY5GO1cbfQSPFYkaxqiwkeI0NHkLQQ0P1yUWUWVkuqB4evw6Y7irp6Y6i3K/DtDNHuz6PK4mz+/TYUC8SoPKoL0GmK+ggrrXPcymGxMv5pXD8gduW3klpf6zgNcU3pEwRRKo7G4dinWjWGWJWGOC0iZLm7YqVM1heLl+HINvLcYsTaZUNS6x6krsKEhz6CgUkYRhoyfolqTMClNjvBV7Ly1fQLl3smt3e6hWI5sVGte6+fW+XU/hQq0fnILVos+zqjeC436u9ZzPN16ZcLtnVhvpGjdfan5glG7I889nf3819uPm43ufzQL/wj/eOOVxbud9JdFad8sfUU04fM9/Jm7BQbHAIZ3RuVDNjwWDAdR1R8YPNMdbxUMXL3lFqgHrMdZr7yJ37SefaT1XmkWV9kB/ZF1Km36ekx2Itdo0qf3rtjg+ora1QPFsWzwlKtznncy+zn6QbuOqVGoG/MSU7/PmPr+LhAH2FfH1D0FEqeOqVF+YdaUOjxnnL0gNPkpUpGlCjrjmnN8PVND9vN+PXNMh+QXhuzWvNLUsHGJDYspDyNIn69qXOc32TaQXg2HMcpfyib5C5ENtcXP9aGrbkm8vXxyPu0n57xaithjDBnawn0Hg19OIpka/ybWeOf0wyr1m3QVYp8nn6DfY+8tEfZZmuOSC3uTXFjJhm5gSzWdMlmmovusyTL/pXmVnpJlpnRLSbh3ElN4SrLMUT+kHRtT+EpMWP3R5qtjCl6s/0K7qF7/mbtz/z8=&lt;/diagram&gt;&lt;/mxfile&gt;"><defs/><g><g><path d="M 0 133 L 700 133 L 700 943 L 0 943 Z" fill="none" stroke="#232f3e" stroke-miterlimit="10" pointer-events="none" style="stroke: light-dark(rgb(35, 47, 62), rgb(189, 199, 212));"/><path d="M 6.09 140.18 C 6.01 140.18 5.93 140.19 5.85 140.19 C 5.5 140.19 5.15 140.23 4.81 140.32 C 4.53 140.39 4.25 140.49 3.98 140.62 C 3.9 140.65 3.84 140.7 3.79 140.76 C 3.75 140.83 3.74 140.91 3.74 140.99 L 3.74 141.32 C 3.74 141.46 3.79 141.53 3.89 141.53 L 3.99 141.53 L 4.22 141.44 C 4.45 141.35 4.69 141.27 4.94 141.21 C 5.17 141.16 5.41 141.13 5.65 141.13 C 6.04 141.09 6.43 141.2 6.73 141.44 C 6.97 141.74 7.09 142.12 7.05 142.5 L 7.05 142.99 C 6.79 142.93 6.54 142.88 6.29 142.84 C 6.05 142.81 5.81 142.79 5.57 142.79 C 4.98 142.76 4.4 142.94 3.94 143.31 C 3.54 143.65 3.32 144.15 3.34 144.68 C 3.31 145.15 3.49 145.62 3.82 145.96 C 4.18 146.29 4.66 146.46 5.15 146.44 C 5.91 146.45 6.63 146.11 7.11 145.51 C 7.18 145.66 7.24 145.79 7.31 145.91 C 7.38 146.02 7.46 146.12 7.55 146.21 C 7.6 146.27 7.67 146.31 7.75 146.31 C 7.81 146.31 7.87 146.29 7.92 146.25 L 8.34 145.97 C 8.41 145.93 8.46 145.86 8.47 145.77 C 8.47 145.72 8.45 145.67 8.42 145.62 C 8.34 145.47 8.26 145.31 8.21 145.14 C 8.15 144.95 8.12 144.75 8.13 144.55 L 8.14 142.37 C 8.2 141.77 8 141.18 7.59 140.74 C 7.17 140.39 6.64 140.19 6.09 140.18 Z M 19.89 140.19 C 19.78 140.19 19.68 140.19 19.57 140.2 C 19.29 140.2 19 140.24 18.73 140.31 C 18.47 140.38 18.23 140.5 18.02 140.66 C 17.82 140.81 17.66 140.99 17.54 141.21 C 17.42 141.43 17.35 141.67 17.36 141.92 C 17.36 142.27 17.48 142.61 17.69 142.89 C 17.97 143.22 18.34 143.46 18.76 143.56 L 19.72 143.87 C 19.97 143.93 20.2 144.05 20.39 144.22 C 20.51 144.35 20.58 144.51 20.57 144.69 C 20.58 144.94 20.45 145.18 20.23 145.31 C 19.93 145.48 19.6 145.56 19.26 145.54 C 18.99 145.54 18.72 145.51 18.46 145.45 C 18.22 145.4 17.98 145.32 17.75 145.22 L 17.59 145.15 C 17.54 145.14 17.5 145.14 17.46 145.15 C 17.36 145.15 17.31 145.22 17.31 145.36 L 17.31 145.69 C 17.31 145.76 17.32 145.82 17.35 145.88 C 17.4 145.97 17.47 146.03 17.56 146.07 C 17.8 146.19 18.06 146.28 18.32 146.34 C 18.66 146.41 19 146.45 19.35 146.45 L 19.33 146.46 C 19.66 146.45 19.98 146.4 20.29 146.3 C 20.55 146.22 20.8 146.09 21.01 145.92 C 21.21 145.77 21.38 145.57 21.49 145.34 C 21.61 145.1 21.67 144.83 21.66 144.56 C 21.67 144.23 21.56 143.9 21.36 143.63 C 21.09 143.32 20.73 143.09 20.33 142.99 L 19.39 142.69 C 19.13 142.61 18.88 142.49 18.67 142.32 C 18.54 142.2 18.47 142.03 18.47 141.85 C 18.46 141.61 18.58 141.38 18.79 141.25 C 19.06 141.11 19.36 141.05 19.67 141.06 C 20.11 141.06 20.55 141.14 20.96 141.32 C 21.04 141.37 21.12 141.4 21.21 141.41 C 21.31 141.41 21.36 141.34 21.36 141.19 L 21.36 140.88 C 21.37 140.8 21.35 140.72 21.31 140.66 C 21.25 140.59 21.18 140.54 21.11 140.49 L 20.83 140.38 L 20.45 140.27 L 20.01 140.2 C 19.97 140.2 19.93 140.19 19.89 140.19 Z M 16.02 140.35 C 15.94 140.35 15.86 140.38 15.79 140.42 C 15.72 140.5 15.68 140.59 15.66 140.69 L 14.51 145.14 L 13.47 140.71 C 13.45 140.61 13.41 140.52 13.34 140.44 C 13.26 140.39 13.17 140.37 13.07 140.38 L 12.54 140.38 C 12.44 140.37 12.35 140.39 12.27 140.44 C 12.2 140.51 12.15 140.61 12.14 140.71 L 11.09 145.14 L 9.97 140.7 C 9.95 140.6 9.91 140.51 9.84 140.44 C 9.76 140.39 9.67 140.36 9.58 140.37 L 8.92 140.37 C 8.81 140.37 8.76 140.43 8.76 140.54 C 8.77 140.63 8.79 140.72 8.82 140.81 L 10.38 145.95 C 10.4 146.05 10.45 146.14 10.52 146.21 C 10.6 146.26 10.69 146.29 10.78 146.28 L 11.36 146.26 C 11.46 146.27 11.55 146.25 11.63 146.19 C 11.7 146.12 11.74 146.03 11.76 145.93 L 12.79 141.64 L 13.82 145.93 C 13.83 146.03 13.88 146.12 13.95 146.19 C 14.03 146.25 14.12 146.27 14.21 146.26 L 14.79 146.26 C 14.88 146.27 14.97 146.25 15.04 146.2 C 15.11 146.13 15.16 146.03 15.18 145.94 L 16.79 140.79 C 16.84 140.72 16.84 140.63 16.84 140.63 C 16.84 140.59 16.84 140.56 16.84 140.52 C 16.84 140.48 16.82 140.43 16.79 140.4 C 16.76 140.37 16.72 140.35 16.67 140.36 L 16.05 140.36 C 16.04 140.36 16.03 140.36 16.02 140.35 Z M 5.65 143.62 C 5.7 143.62 5.75 143.62 5.8 143.62 L 6.43 143.62 C 6.64 143.64 6.85 143.67 7.06 143.71 L 7.07 144.01 C 7.07 144.21 7.05 144.4 7 144.59 C 6.96 144.75 6.88 144.9 6.77 145.01 C 6.61 145.21 6.39 145.36 6.14 145.44 C 5.91 145.52 5.67 145.56 5.43 145.56 C 5.18 145.6 4.93 145.53 4.73 145.37 C 4.55 145.18 4.46 144.92 4.49 144.66 C 4.47 144.36 4.59 144.08 4.81 143.89 C 5.06 143.72 5.35 143.62 5.65 143.62 Z M 21.04 147.72 C 20.34 147.73 19.51 147.89 18.89 148.33 C 18.69 148.47 18.72 148.63 18.94 148.63 C 19.64 148.54 21.21 148.35 21.5 148.71 C 21.78 149.06 21.19 150.54 20.94 151.21 C 20.86 151.41 21.04 151.49 21.21 151.34 C 22.39 150.36 22.72 148.3 22.46 148 C 22.32 147.85 21.74 147.71 21.04 147.72 Z M 2.65 148.1 C 2.5 148.12 2.42 148.3 2.58 148.44 C 5.29 150.89 8.82 152.23 12.48 152.21 C 15.37 152.22 18.2 151.36 20.59 149.74 C 20.95 149.47 20.64 149.07 20.26 149.23 C 17.87 150.24 15.3 150.76 12.71 150.77 C 9.23 150.78 5.82 149.87 2.81 148.14 C 2.75 148.11 2.7 148.1 2.65 148.1 Z M 0 133 L 25 133 L 25 158 L 0 158 Z" fill="#232f3e" stroke="none" pointer-events="all" style="fill: light-dark(rgb(35, 47, 62), rgb(189, 199, 212));"/></g><g><g transform="translate(-0.5 -0.5)"><switch><foreignObject style="overflow: visible; text-align: left;" pointer-events="none" width="100%" height="100%" requiredFeatures="http://www.w3.org/TR/SVG11/feature#Extensibility"><div xmlns="http://www.w3.org/1999/xhtml" style="display: flex; align-items: unsafe flex-start; justify-content: unsafe flex-start; width: 668px; height: 1px; padding-top: 140px; margin-left: 32px;"><div style="box-sizing: border-box; font-size: 0; text-align: left; color: #232F3E; "><div style="display: inline-block; font-size: 15px; font-family: &quot;Helvetica&quot;; color: light-dark(#232F3E, #bdc7d4); line-height: 1.2; pointer-events: all; white-space: normal; word-wrap: normal; "><font>AWS Cloud</font></div></div></div></foreignObject><text x="32" y="155" fill="#232F3E" font-family="&quot;Helvetica&quot;" font-size="15px">AWS Cloud</text></switch></g></g><g><path d="M 20 213 L 680 213 L 680 923 L 20 923 Z" fill="none" stroke="#00a4a6" stroke-miterlimit="10" stroke-dasharray="3 3" pointer-events="none" style="stroke: light-dark(rgb(0, 164, 166), rgb(15, 156, 158));"/><path d="M 28.06 216.47 C 27.47 216.47 27 216.95 27 217.53 C 27 217.99 27.3 218.39 27.71 218.53 L 27.71 233.82 L 25.95 233.82 L 25.95 234.57 L 30.16 234.57 L 30.16 233.82 L 28.46 233.82 L 28.46 225.75 L 39.84 225.75 L 37.19 222.59 L 39.83 219.36 L 28.46 219.36 L 28.46 218.51 C 28.85 218.35 29.12 217.97 29.12 217.53 C 29.12 216.95 28.64 216.47 28.06 216.47 Z M 28.06 217.22 C 28.23 217.22 28.37 217.35 28.37 217.53 C 28.37 217.71 28.23 217.84 28.06 217.84 C 27.88 217.84 27.75 217.71 27.75 217.53 C 27.75 217.35 27.88 217.22 28.06 217.22 Z M 28.46 220.11 L 38.25 220.11 L 36.22 222.6 L 38.23 225 L 28.46 225 Z M 20 238 L 20 213 L 45 213 L 45 238 Z" fill="#00a4a6" stroke="none" pointer-events="all" style="fill: light-dark(rgb(0, 164, 166), rgb(15, 156, 158));"/></g><g><g transform="translate(-0.5 -0.5)"><switch><foreignObject style="overflow: visible; text-align: left;" pointer-events="none" width="100%" height="100%" requiredFeatures="http://www.w3.org/TR/SVG11/feature#Extensibility"><div xmlns="http://www.w3.org/1999/xhtml" style="display: flex; align-items: unsafe flex-start; justify-content: unsafe flex-start; width: 628px; height: 1px; padding-top: 220px; margin-left: 52px;"><div style="box-sizing: border-box; font-size: 0; text-align: left; color: #147EBA; "><div style="display: inline-block; font-size: 15px; font-family: &quot;Helvetica&quot;; color: light-dark(#147EBA, #45a0d4); line-height: 1.2; pointer-events: all; white-space: normal; word-wrap: normal; "><font>ap-northeast-1(Tokyo)</font></div></div></div></foreignObject><text x="52" y="235" fill="#147EBA" font-family="&quot;Helvetica&quot;" font-size="15px">ap-northeast-1(Tokyo)</text></switch></g></g><g><path d="M 40 293 L 660 293 L 660 903 L 40 903 Z" fill="none" stroke="#8c4fff" stroke-miterlimit="10" pointer-events="all" style="stroke: light-dark(rgb(140, 79, 255), rgb(177, 125, 255));"/><path d="M 40 293 L 40 318 L 65 318 L 65 293 Z M 50.99 297.38 C 52.29 297.36 53.51 297.77 54.32 298.55 C 54.78 299 55.14 299.51 55.42 300.1 C 55.8 299.82 56.29 299.69 56.89 299.72 C 58 299.77 58.85 300.79 59.03 302.22 C 59.97 302.3 60.58 302.77 60.91 303.66 L 60.33 303.88 C 60.06 303.16 59.57 302.83 58.74 302.83 C 58.58 302.83 58.44 302.7 58.43 302.54 C 58.35 301.08 57.55 300.38 56.85 300.34 C 56.26 300.31 55.83 300.48 55.55 300.83 C 55.48 300.93 55.38 300.97 55.26 300.96 C 55.15 300.94 55.05 300.86 55.01 300.75 C 54.76 300.06 54.39 299.49 53.88 298.99 C 52.76 297.91 50.7 297.68 48.86 298.44 C 47.57 298.96 46.74 300.32 46.74 301.88 C 46.74 302.06 46.76 302.32 46.78 302.48 C 46.8 302.64 46.7 302.79 46.55 302.82 C 45.11 303.18 44.37 304.05 44.37 305.4 C 44.37 305.46 44.37 305.53 44.38 305.59 C 44.47 307.15 45.44 308.15 46.87 308.15 L 51.87 308.15 L 51.87 308.77 L 46.87 308.77 C 45.11 308.77 43.86 307.51 43.76 305.64 C 43.75 305.57 43.75 305.48 43.75 305.4 C 43.75 303.83 44.57 302.76 46.14 302.29 C 46.12 302.15 46.12 302 46.12 301.88 C 46.12 300.06 47.1 298.48 48.63 297.86 C 49.4 297.54 50.21 297.38 50.99 297.38 Z M 57.21 302.83 C 57.25 302.83 57.29 302.84 57.33 302.86 L 61.05 304.5 C 61.17 304.55 61.24 304.66 61.24 304.79 L 61.24 309.4 C 61.24 309.47 61.26 311.43 59.99 312.72 C 59.28 313.43 58.33 313.8 57.15 313.8 C 55.97 313.8 55.02 313.43 54.33 312.72 C 53.08 311.43 53.12 309.47 53.12 309.39 L 53.12 304.73 C 53.12 304.61 53.19 304.49 53.31 304.45 L 57.08 302.86 C 57.12 302.84 57.16 302.83 57.21 302.83 Z M 57.2 303.49 L 53.74 304.94 L 53.74 309.4 C 53.74 309.42 53.71 311.19 54.78 312.29 C 55.35 312.87 56.15 313.17 57.15 313.17 C 58.15 313.17 58.96 312.87 59.54 312.28 C 60.62 311.18 60.61 309.42 60.61 309.4 L 60.61 304.99 Z M 57.2 304.57 C 57.25 304.57 57.29 304.58 57.33 304.59 L 59.79 305.65 C 59.91 305.7 59.98 305.81 59.98 305.94 L 59.98 310.02 C 59.87 310.93 59.13 312.56 57.15 312.56 C 55.23 312.56 54.49 310.93 54.37 310.06 L 54.37 305.94 C 54.37 305.81 54.45 305.7 54.56 305.65 L 57.08 304.59 C 57.12 304.58 57.16 304.57 57.2 304.57 Z M 56.89 305.35 L 54.99 306.15 L 54.99 310.02 C 55 310.05 55.27 311.75 56.89 311.92 Z M 57.52 305.35 L 57.52 311.91 C 59.11 311.69 59.35 310.05 59.36 309.98 L 59.36 306.14 Z" fill="#8c4fff" stroke="none" pointer-events="all" style="fill: light-dark(rgb(140, 79, 255), rgb(177, 125, 255));"/></g><g><g transform="translate(-0.5 -0.5)"><switch><foreignObject style="overflow: visible; text-align: left;" pointer-events="none" width="100%" height="100%" requiredFeatures="http://www.w3.org/TR/SVG11/feature#Extensibility"><div xmlns="http://www.w3.org/1999/xhtml" style="display: flex; align-items: unsafe flex-start; justify-content: unsafe flex-start; width: 588px; height: 1px; padding-top: 300px; margin-left: 72px;"><div style="box-sizing: border-box; font-size: 0; text-align: left; color: #AAB7B8; "><div style="display: inline-block; font-size: 15px; font-family: &quot;Helvetica&quot;; color: light-dark(#AAB7B8, #4a5556); line-height: 1.2; pointer-events: all; white-space: normal; word-wrap: normal; "><font>aws-study-vpc</font></div></div></div></foreignObject><text x="72" y="315" fill="#AAB7B8" font-family="&quot;Helvetica&quot;" font-size="15px">aws-study-vpc</text></switch></g></g><g><rect x="360" y="353" width="280" height="530" fill="none" stroke="#147eba" stroke-dasharray="3 3" pointer-events="all" style="stroke: light-dark(rgb(20, 126, 186), rgb(69, 160, 212));"/></g><g><g transform="translate(-0.5 -0.5)"><switch><foreignObject style="overflow: visible; text-align: left;" pointer-events="none" width="100%" height="100%" requiredFeatures="http://www.w3.org/TR/SVG11/feature#Extensibility"><div xmlns="http://www.w3.org/1999/xhtml" style="display: flex; align-items: unsafe flex-start; justify-content: unsafe center; width: 278px; height: 1px; padding-top: 360px; margin-left: 361px;"><div style="box-sizing: border-box; font-size: 0; text-align: center; color: #147EBA; "><div style="display: inline-block; font-size: 15px; font-family: &quot;Helvetica&quot;; color: light-dark(#147EBA, #45a0d4); line-height: 1.2; pointer-events: all; white-space: normal; word-wrap: normal; ">Availability Zone<br />ap-northeast-1c</div></div></div></foreignObject><text x="500" y="375" fill="#147EBA" font-family="&quot;Helvetica&quot;" font-size="15px" text-anchor="middle">Availability Zone...</text></switch></g></g><g><rect x="60" y="353" width="280" height="530" fill="none" stroke="#147eba" stroke-dasharray="3 3" pointer-events="all" style="stroke: light-dark(rgb(20, 126, 186), rgb(69, 160, 212));"/></g><g><g transform="translate(-0.5 -0.5)"><switch><foreignObject style="overflow: visible; text-align: left;" pointer-events="none" width="100%" height="100%" requiredFeatures="http://www.w3.org/TR/SVG11/feature#Extensibility"><div xmlns="http://www.w3.org/1999/xhtml" style="display: flex; align-items: unsafe flex-start; justify-content: unsafe center; width: 278px; height: 1px; padding-top: 360px; margin-left: 61px;"><div style="box-sizing: border-box; font-size: 0; text-align: center; color: #147EBA; "><div style="display: inline-block; font-size: 15px; font-family: &quot;Helvetica&quot;; color: light-dark(#147EBA, #45a0d4); line-height: 1.2; pointer-events: all; white-space: normal; word-wrap: normal; ">Availability Zone<br />ap-northeast-1a</div></div></div></foreignObject><text x="200" y="375" fill="#147EBA" font-family="&quot;Helvetica&quot;" font-size="15px" text-anchor="middle">Availability Zone...</text></switch></g></g><g><path d="M 380 403 L 620 403 L 620 623 L 380 623 Z" fill="#f2f6e8" stroke="none" pointer-events="none" style="fill: light-dark(rgb(242, 246, 232), rgb(26, 29, 17));"/><path d="M 380 403 L 405 403 L 405 428 L 380 428 Z M 392.52 406.21 C 391.4 406.21 390.31 406.63 389.49 407.39 C 388.67 408.11 388.2 409.15 388.2 410.24 L 388.2 412.78 L 385.89 412.78 C 385.8 412.78 385.7 412.82 385.64 412.89 C 385.57 412.95 385.54 413.04 385.54 413.13 L 385.54 424.43 C 385.54 424.63 385.7 424.79 385.89 424.79 L 399.11 424.79 C 399.3 424.79 399.46 424.63 399.46 424.43 L 399.46 413.15 C 399.47 413.06 399.43 412.97 399.36 412.9 C 399.3 412.83 399.21 412.79 399.11 412.79 L 396.81 412.79 L 396.81 410.29 C 396.8 409.21 396.35 408.18 395.56 407.44 C 394.74 406.65 393.65 406.22 392.52 406.21 Z M 392.51 406.93 C 393.46 406.92 394.37 407.28 395.06 407.93 C 395.72 408.54 396.1 409.4 396.1 410.29 L 396.1 412.79 L 388.88 412.79 L 388.89 410.26 C 388.9 409.36 389.28 408.51 389.95 407.91 C 390.65 407.27 391.57 406.92 392.51 406.93 Z M 386.24 413.5 L 398.76 413.5 L 398.75 424.07 L 386.24 424.07 Z M 392.51 415.74 C 391.48 415.73 390.61 416.51 390.51 417.53 C 390.42 418.56 391.13 419.48 392.14 419.66 L 392.14 422.44 L 392.86 422.44 L 392.86 419.66 C 393.79 419.49 394.47 418.67 394.48 417.72 C 394.48 416.63 393.6 415.75 392.51 415.74 Z M 392.39 416.45 C 392.43 416.45 392.47 416.45 392.51 416.46 C 392.84 416.46 393.16 416.59 393.4 416.83 C 393.64 417.07 393.77 417.39 393.76 417.72 C 393.77 418.06 393.64 418.38 393.4 418.61 C 393.16 418.85 392.84 418.98 392.51 418.98 C 392.04 419.02 391.6 418.8 391.34 418.42 C 391.08 418.03 391.06 417.53 391.28 417.12 C 391.5 416.71 391.93 416.46 392.39 416.45 Z" fill="#7aa116" stroke="none" pointer-events="all" style="fill: light-dark(rgb(122, 161, 22), rgb(97, 130, 11));"/></g><g><g transform="translate(-0.5 -0.5)"><switch><foreignObject style="overflow: visible; text-align: left;" pointer-events="none" width="100%" height="100%" requiredFeatures="http://www.w3.org/TR/SVG11/feature#Extensibility"><div xmlns="http://www.w3.org/1999/xhtml" style="display: flex; align-items: unsafe flex-start; justify-content: unsafe flex-start; width: 208px; height: 1px; padding-top: 410px; margin-left: 412px;"><div style="box-sizing: border-box; font-size: 0; text-align: left; color: #248814; "><div style="display: inline-block; font-size: 15px; font-family: &quot;Helvetica&quot;; color: light-dark(#248814, #55ab47); line-height: 1.2; pointer-events: all; white-space: normal; word-wrap: normal; "><span style="color: light-dark(rgb(36, 136, 20), rgb(85, 171, 71));"><span style="color: light-dark(rgb(36, 136, 20), rgb(85, 171, 71));">aws-study-public-subnet-1c</span><br />(10.0.1.0/24)</span></div></div></div></foreignObject><text x="412" y="425" fill="#248814" font-family="&quot;Helvetica&quot;" font-size="15px">aws-study-public-subnet-1c...</text></switch></g></g><g><path d="M 80 403 L 320 403 L 320 623 L 80 623 Z" fill="#f2f6e8" stroke="none" pointer-events="none" style="fill: light-dark(rgb(242, 246, 232), rgb(26, 29, 17));"/><path d="M 80 403 L 105 403 L 105 428 L 80 428 Z M 92.52 406.21 C 91.4 406.21 90.31 406.63 89.48 407.39 C 88.67 408.11 88.2 409.15 88.2 410.24 L 88.2 412.78 L 85.89 412.78 C 85.8 412.78 85.7 412.82 85.64 412.89 C 85.57 412.95 85.54 413.04 85.54 413.13 L 85.54 424.43 C 85.54 424.63 85.7 424.79 85.89 424.79 L 99.11 424.79 C 99.3 424.79 99.46 424.63 99.46 424.43 L 99.46 413.15 C 99.47 413.06 99.43 412.97 99.36 412.9 C 99.3 412.83 99.21 412.79 99.11 412.79 L 96.81 412.79 L 96.81 410.29 C 96.8 409.21 96.35 408.18 95.56 407.44 C 94.74 406.65 93.65 406.22 92.52 406.21 Z M 92.51 406.93 C 93.46 406.92 94.37 407.28 95.06 407.93 C 95.72 408.54 96.1 409.4 96.1 410.29 L 96.1 412.79 L 88.88 412.79 L 88.89 410.26 C 88.9 409.36 89.28 408.51 89.95 407.91 C 90.65 407.27 91.57 406.92 92.51 406.93 Z M 86.24 413.5 L 98.76 413.5 L 98.75 424.07 L 86.24 424.07 Z M 92.51 415.74 C 91.48 415.73 90.61 416.51 90.51 417.53 C 90.42 418.56 91.13 419.48 92.14 419.66 L 92.14 422.44 L 92.86 422.44 L 92.86 419.66 C 93.79 419.49 94.47 418.67 94.48 417.72 C 94.48 416.63 93.6 415.75 92.51 415.74 Z M 92.39 416.45 C 92.43 416.45 92.47 416.45 92.51 416.46 C 92.84 416.46 93.16 416.59 93.4 416.83 C 93.64 417.07 93.77 417.39 93.76 417.72 C 93.77 418.06 93.64 418.38 93.4 418.61 C 93.16 418.85 92.84 418.98 92.51 418.98 C 92.04 419.02 91.6 418.8 91.34 418.42 C 91.08 418.03 91.06 417.53 91.28 417.12 C 91.5 416.71 91.93 416.46 92.39 416.45 Z" fill="#7aa116" stroke="none" pointer-events="all" style="fill: light-dark(rgb(122, 161, 22), rgb(97, 130, 11));"/></g><g><g transform="translate(-0.5 -0.5)"><switch><foreignObject style="overflow: visible; text-align: left;" pointer-events="none" width="100%" height="100%" requiredFeatures="http://www.w3.org/TR/SVG11/feature#Extensibility"><div xmlns="http://www.w3.org/1999/xhtml" style="display: flex; align-items: unsafe flex-start; justify-content: unsafe flex-start; width: 208px; height: 1px; padding-top: 410px; margin-left: 112px;"><div style="box-sizing: border-box; font-size: 0; text-align: left; color: #248814; "><div style="display: inline-block; font-size: 15px; font-family: &quot;Helvetica&quot;; color: light-dark(#248814, #55ab47); line-height: 1.2; pointer-events: all; white-space: normal; word-wrap: normal; ">aws-study-subnet-1a<br />(10.0.0.0/24)</div></div></div></foreignObject><text x="112" y="425" fill="#248814" font-family="&quot;Helvetica&quot;" font-size="15px">aws-study-subnet-1a...</text></switch></g></g><g><rect x="300" y="483" width="100" height="100" fill="none" stroke="none" pointer-events="all"/><path d="M 350 483 C 322.43 483 300 505.43 300 533 C 300 560.57 322.43 583 350 583 C 377.57 583 400 560.57 400 533 C 400 505.43 377.57 483 350 483 Z M 350 578.45 C 324.94 578.45 304.55 558.06 304.55 533 C 304.55 507.94 324.94 487.55 350 487.55 C 375.06 487.55 395.45 507.94 395.45 533 C 395.45 558.06 375.06 578.45 350 578.45 Z M 379.62 546.64 L 376.14 546.64 L 376.14 538.97 C 376.14 537.71 375.12 536.69 373.86 536.69 L 368.18 536.69 L 368.18 529.02 C 368.18 527.77 367.16 526.75 365.91 526.75 L 352.27 526.75 L 352.27 521.35 L 365.91 521.35 C 367.16 521.35 368.18 520.34 368.18 519.08 L 368.18 501.18 C 368.18 499.93 367.16 498.91 365.91 498.91 L 334.09 498.91 C 332.84 498.91 331.82 499.93 331.82 501.18 L 331.82 519.08 C 331.82 520.34 332.84 521.35 334.09 521.35 L 347.73 521.35 L 347.73 526.75 L 334.09 526.75 C 332.84 526.75 331.82 527.77 331.82 529.02 L 331.82 536.69 L 326.14 536.69 C 324.88 536.69 323.87 537.71 323.87 538.97 L 323.87 546.64 L 320.37 546.64 C 319.12 546.64 318.1 547.65 318.1 548.91 L 318.1 558.85 C 318.1 560.11 319.12 561.12 320.37 561.12 L 330.12 561.12 C 331.37 561.12 332.39 560.11 332.39 558.85 L 332.39 548.91 C 332.39 547.65 331.37 546.64 330.12 546.64 L 328.41 546.64 L 328.41 541.24 L 337.79 541.24 L 337.79 546.64 L 336.08 546.64 C 334.82 546.64 333.81 547.65 333.81 548.91 L 333.81 558.85 C 333.81 560.11 334.82 561.12 336.08 561.12 L 346.02 561.12 C 347.28 561.12 348.3 560.11 348.3 558.85 L 348.3 548.91 C 348.3 547.65 347.28 546.64 346.02 546.64 L 342.33 546.64 L 342.33 538.97 C 342.33 537.71 341.31 536.69 340.06 536.69 L 336.37 536.69 L 336.37 531.3 L 363.64 531.3 L 363.64 536.69 L 359.94 536.69 C 358.69 536.69 357.67 537.71 357.67 538.97 L 357.67 546.64 L 353.98 546.64 C 352.72 546.64 351.71 547.65 351.71 548.91 L 351.71 558.85 C 351.71 560.11 352.72 561.12 353.98 561.12 L 363.92 561.12 C 365.18 561.12 366.19 560.11 366.19 558.85 L 366.19 548.91 C 366.19 547.65 365.18 546.64 363.92 546.64 L 362.22 546.64 L 362.22 541.24 L 371.59 541.24 L 371.59 546.64 L 369.75 546.64 C 368.49 546.64 367.48 547.65 367.48 548.91 L 367.48 558.85 C 367.48 560.11 368.49 561.12 369.75 561.12 L 379.62 561.12 C 380.88 561.12 381.9 560.11 381.9 558.85 L 381.9 548.91 C 381.9 547.65 380.88 546.64 379.62 546.64 Z M 336.37 516.81 L 336.37 503.46 L 363.64 503.46 L 363.64 516.81 Z M 322.65 556.58 L 322.65 551.18 L 327.84 551.18 L 327.84 556.58 Z M 338.35 556.58 L 338.35 551.18 L 343.75 551.18 L 343.75 556.58 Z M 356.25 556.58 L 356.25 551.18 L 361.65 551.18 L 361.65 556.58 Z M 372.02 556.58 L 372.02 551.18 L 377.35 551.18 L 377.35 556.58 Z" fill="#8c4fff" stroke="none" pointer-events="all" style="fill: light-dark(rgb(140, 79, 255), rgb(177, 125, 255));"/></g><g><g transform="translate(-0.5 -0.5)"><switch><foreignObject style="overflow: visible; text-align: left;" pointer-events="none" width="100%" height="100%" requiredFeatures="http://www.w3.org/TR/SVG11/feature#Extensibility"><div xmlns="http://www.w3.org/1999/xhtml" style="display: flex; align-items: unsafe flex-start; justify-content: unsafe center; width: 98px; height: 1px; padding-top: 590px; margin-left: 301px;"><div style="box-sizing: border-box; font-size: 0; text-align: center; color: #232F3E; background-color: #ffffff; "><div style="display: inline-block; font-size: 12px; font-family: &quot;Helvetica&quot;; color: light-dark(#232F3E, #bdc7d4); line-height: 1.2; pointer-events: all; background-color: light-dark(#ffffff, var(--ge-dark-color, #121212)); white-space: normal; word-wrap: normal; "><font style="font-size: 15px;">aws-study-alb</font></div></div></div></foreignObject><text x="350" y="602" fill="#232F3E" font-family="&quot;Helvetica&quot;" font-size="12px" text-anchor="middle">aws-study-alb</text></switch></g></g><g><path d="M 80 643 L 320 643 L 320 863 L 80 863 Z" fill="#e6f6f7" stroke="none" pointer-events="none" style="fill: light-dark(rgb(230, 246, 247), rgb(18, 31, 32));"/><path d="M 80 643 L 105 643 L 105 668 L 80 668 Z M 92.52 646.21 C 91.4 646.21 90.31 646.63 89.48 647.39 C 88.67 648.11 88.2 649.15 88.2 650.24 L 88.2 652.78 L 85.89 652.78 C 85.8 652.78 85.7 652.82 85.64 652.89 C 85.57 652.95 85.54 653.04 85.54 653.13 L 85.54 664.43 C 85.54 664.63 85.7 664.79 85.89 664.79 L 99.11 664.79 C 99.3 664.79 99.46 664.63 99.46 664.43 L 99.46 653.15 C 99.47 653.06 99.43 652.97 99.36 652.9 C 99.3 652.83 99.21 652.79 99.11 652.79 L 96.81 652.79 L 96.81 650.29 C 96.8 649.21 96.35 648.18 95.56 647.44 C 94.74 646.65 93.65 646.22 92.52 646.21 Z M 92.51 646.93 C 93.46 646.92 94.37 647.28 95.06 647.93 C 95.72 648.54 96.1 649.4 96.1 650.29 L 96.1 652.79 L 88.88 652.79 L 88.89 650.26 C 88.9 649.36 89.28 648.51 89.95 647.91 C 90.65 647.27 91.57 646.92 92.51 646.93 Z M 86.24 653.5 L 98.76 653.5 L 98.75 664.07 L 86.24 664.07 Z M 92.51 655.74 C 91.48 655.73 90.61 656.51 90.51 657.53 C 90.42 658.56 91.13 659.48 92.14 659.66 L 92.14 662.44 L 92.86 662.44 L 92.86 659.66 C 93.79 659.49 94.47 658.67 94.48 657.72 C 94.48 656.63 93.6 655.75 92.51 655.74 Z M 92.39 656.45 C 92.43 656.45 92.47 656.45 92.51 656.46 C 92.84 656.46 93.16 656.59 93.4 656.83 C 93.64 657.07 93.77 657.39 93.76 657.72 C 93.77 658.06 93.64 658.38 93.4 658.61 C 93.16 658.85 92.84 658.98 92.51 658.98 C 92.04 659.02 91.6 658.8 91.34 658.42 C 91.08 658.03 91.06 657.53 91.28 657.12 C 91.5 656.71 91.93 656.46 92.39 656.45 Z" fill="#00a4a6" stroke="none" pointer-events="all" style="fill: light-dark(rgb(0, 164, 166), rgb(15, 156, 158));"/></g><g><g transform="translate(-0.5 -0.5)"><switch><foreignObject style="overflow: visible; text-align: left;" pointer-events="none" width="100%" height="100%" requiredFeatures="http://www.w3.org/TR/SVG11/feature#Extensibility"><div xmlns="http://www.w3.org/1999/xhtml" style="display: flex; align-items: unsafe flex-start; justify-content: unsafe flex-start; width: 208px; height: 1px; padding-top: 650px; margin-left: 112px;"><div style="box-sizing: border-box; font-size: 0; text-align: left; color: #147EBA; "><div style="display: inline-block; font-size: 15px; font-family: &quot;Helvetica&quot;; color: light-dark(#147EBA, #45a0d4); line-height: 1.2; pointer-events: all; white-space: normal; word-wrap: normal; ">aws-study-private-subnet-1a<br />(10.0.10.0/24)</div></div></div></foreignObject><text x="112" y="665" fill="#147EBA" font-family="&quot;Helvetica&quot;" font-size="15px">aws-study-private-subnet-1a...</text></switch></g></g><g><path d="M 380 643 L 620 643 L 620 863 L 380 863 Z" fill="#e6f6f7" stroke="none" pointer-events="none" style="fill: light-dark(rgb(230, 246, 247), rgb(18, 31, 32));"/><path d="M 380 643 L 405 643 L 405 668 L 380 668 Z M 392.52 646.21 C 391.4 646.21 390.31 646.63 389.49 647.39 C 388.67 648.11 388.2 649.15 388.2 650.24 L 388.2 652.78 L 385.89 652.78 C 385.8 652.78 385.7 652.82 385.64 652.89 C 385.57 652.95 385.54 653.04 385.54 653.13 L 385.54 664.43 C 385.54 664.63 385.7 664.79 385.89 664.79 L 399.11 664.79 C 399.3 664.79 399.46 664.63 399.46 664.43 L 399.46 653.15 C 399.47 653.06 399.43 652.97 399.36 652.9 C 399.3 652.83 399.21 652.79 399.11 652.79 L 396.81 652.79 L 396.81 650.29 C 396.8 649.21 396.35 648.18 395.56 647.44 C 394.74 646.65 393.65 646.22 392.52 646.21 Z M 392.51 646.93 C 393.46 646.92 394.37 647.28 395.06 647.93 C 395.72 648.54 396.1 649.4 396.1 650.29 L 396.1 652.79 L 388.88 652.79 L 388.89 650.26 C 388.9 649.36 389.28 648.51 389.95 647.91 C 390.65 647.27 391.57 646.92 392.51 646.93 Z M 386.24 653.5 L 398.76 653.5 L 398.75 664.07 L 386.24 664.07 Z M 392.51 655.74 C 391.48 655.73 390.61 656.51 390.51 657.53 C 390.42 658.56 391.13 659.48 392.14 659.66 L 392.14 662.44 L 392.86 662.44 L 392.86 659.66 C 393.79 659.49 394.47 658.67 394.48 657.72 C 394.48 656.63 393.6 655.75 392.51 655.74 Z M 392.39 656.45 C 392.43 656.45 392.47 656.45 392.51 656.46 C 392.84 656.46 393.16 656.59 393.4 656.83 C 393.64 657.07 393.77 657.39 393.76 657.72 C 393.77 658.06 393.64 658.38 393.4 658.61 C 393.16 658.85 392.84 658.98 392.51 658.98 C 392.04 659.02 391.6 658.8 391.34 658.42 C 391.08 658.03 391.06 657.53 391.28 657.12 C 391.5 656.71 391.93 656.46 392.39 656.45 Z" fill="#00a4a6" stroke="none" pointer-events="all" style="fill: light-dark(rgb(0, 164, 166), rgb(15, 156, 158));"/></g><g><g transform="translate(-0.5 -0.5)"><switch><foreignObject style="overflow: visible; text-align: left;" pointer-events="none" width="100%" height="100%" requiredFeatures="http://www.w3.org/TR/SVG11/feature#Extensibility"><div xmlns="http://www.w3.org/1999/xhtml" style="display: flex; align-items: unsafe flex-start; justify-content: unsafe flex-start; width: 208px; height: 1px; padding-top: 650px; margin-left: 412px;"><div style="box-sizing: border-box; font-size: 0; text-align: left; color: #147EBA; "><div style="display: inline-block; font-size: 15px; font-family: &quot;Helvetica&quot;; color: light-dark(#147EBA, #45a0d4); line-height: 1.2; pointer-events: all; white-space: normal; word-wrap: normal; ">aws-study-private-subnet-1c<br />(10.0.11.0/24)</div></div></div></foreignObject><text x="412" y="665" fill="#147EBA" font-family="&quot;Helvetica&quot;" font-size="15px">aws-study-private-subnet-1c...</text></switch></g></g><g><path d="M 150 713 L 250 713 L 250 813 L 150 813 Z" fill="#c925d1" stroke="none" pointer-events="all" style="fill: light-dark(rgb(201, 37, 209), rgb(255, 124, 255));"/><path d="M 164.88 725.86 L 178.15 739.13 L 176.13 741.15 L 162.86 727.88 L 162.86 738.71 L 160 738.71 L 160 724.43 C 160 723.64 160.64 723 161.43 723 L 175.71 723 L 175.71 725.86 Z M 240 724.43 L 240 738.71 L 237.14 738.71 L 237.14 727.88 L 223.87 741.15 L 221.85 739.13 L 235.12 725.86 L 224.29 725.86 L 224.29 723 L 238.57 723 C 239.36 723 240 723.64 240 724.43 Z M 237.14 787.29 L 240 787.29 L 240 801.57 C 240 802.36 239.36 803 238.57 803 L 224.29 803 L 224.29 800.14 L 235.12 800.14 L 221.85 786.87 L 223.87 784.85 L 237.14 798.12 Z M 236.43 761.88 C 236.43 757.13 230.95 752.45 221.79 749.35 L 222.7 746.64 C 233.24 750.21 239.29 755.76 239.29 761.88 C 239.29 767.99 233.24 773.55 222.7 777.11 L 221.78 774.41 C 230.95 771.3 236.43 766.62 236.43 761.88 Z M 163.65 761.88 C 163.65 766.42 168.78 770.98 177.36 774.08 L 176.39 776.76 C 166.48 773.19 160.79 767.76 160.79 761.88 C 160.79 755.99 166.48 750.57 176.39 746.99 L 177.36 749.68 C 168.78 752.77 163.65 757.33 163.65 761.88 Z M 178.15 786.87 L 164.88 800.14 L 175.71 800.14 L 175.71 803 L 161.43 803 C 160.64 803 160 802.36 160 801.57 L 160 787.29 L 162.86 787.29 L 162.86 798.12 L 176.13 784.85 Z M 200 750.55 C 189.79 750.55 184.29 747.91 184.29 746.84 C 184.29 745.76 189.79 743.12 200 743.12 C 210.21 743.12 215.71 745.76 215.71 746.84 C 215.71 747.91 210.21 750.55 200 750.55 Z M 200.04 761.62 C 190.27 761.62 184.29 758.95 184.29 757.49 L 184.29 750.55 C 187.8 752.49 194.05 753.41 200 753.41 C 205.95 753.41 212.2 752.49 215.71 750.55 L 215.71 757.49 C 215.71 758.95 209.76 761.62 200.04 761.62 Z M 200.04 772.52 C 190.27 772.52 184.29 769.85 184.29 768.4 L 184.29 761.37 C 187.76 763.42 193.92 764.47 200.04 764.47 C 206.13 764.47 212.25 763.42 215.71 761.38 L 215.71 768.4 C 215.71 769.86 209.76 772.52 200.04 772.52 Z M 200 782.31 C 189.83 782.31 184.29 779.58 184.29 778.17 L 184.29 772.28 C 187.76 774.32 193.92 775.38 200.04 775.38 C 206.13 775.38 212.25 774.33 215.71 772.29 L 215.71 778.17 C 215.71 779.58 210.17 782.31 200 782.31 Z M 200 740.27 C 191.06 740.27 181.43 742.32 181.43 746.84 L 181.43 778.17 C 181.43 782.77 190.77 785.17 200 785.17 C 209.23 785.17 218.57 782.77 218.57 778.17 L 218.57 746.84 C 218.57 742.32 208.94 740.27 200 740.27 Z" fill="#ffffff" stroke="none" pointer-events="all" style="fill: light-dark(rgb(255, 255, 255), rgb(18, 18, 18));"/></g><g><g transform="translate(-0.5 -0.5)"><switch><foreignObject style="overflow: visible; text-align: left;" pointer-events="none" width="100%" height="100%" requiredFeatures="http://www.w3.org/TR/SVG11/feature#Extensibility"><div xmlns="http://www.w3.org/1999/xhtml" style="display: flex; align-items: unsafe flex-start; justify-content: unsafe center; width: 1px; height: 1px; padding-top: 820px; margin-left: 200px;"><div style="box-sizing: border-box; font-size: 0; text-align: center; color: #232F3E; "><div style="display: inline-block; font-size: 15px; font-family: &quot;Helvetica&quot;; color: light-dark(#232F3E, #bdc7d4); line-height: 1.2; pointer-events: all; white-space: nowrap; ">aws-study-rds</div></div></div></foreignObject><text x="200" y="835" fill="#232F3E" font-family="&quot;Helvetica&quot;" font-size="15px" text-anchor="middle">aws-study-rds</text></switch></g></g><g><path d="M 570 21 L 670 21 L 670 121 L 570 121 Z" fill="#ffffff" stroke="none" pointer-events="all" style="fill: light-dark(rgb(255, 255, 255), rgb(18, 18, 18));"/><path d="M 628.43 44.25 C 628.43 38.95 632.82 34.64 638.22 34.64 C 643.61 34.64 647.99 38.95 647.99 44.25 C 647.99 49.55 643.61 53.86 638.22 53.86 C 632.82 53.86 628.43 49.55 628.43 44.25 Z M 649.39 57.06 C 648.21 56.33 646.97 55.73 645.69 55.24 C 649.27 52.86 651.63 48.82 651.63 44.25 C 651.63 36.94 645.61 31 638.22 31 C 630.82 31 624.8 36.94 624.8 44.25 C 624.8 48.81 627.15 52.84 630.72 55.23 C 628.39 56.11 626.2 57.39 624.27 59.05 L 626.64 61.81 C 629.88 59.03 633.98 57.49 638.18 57.49 C 641.46 57.49 644.67 58.41 647.47 60.15 C 652.45 63.25 655.72 68.68 656.28 74.64 L 638.18 74.64 L 638.18 78.27 L 658.18 78.27 C 659.19 78.27 660 77.46 660 76.45 C 660 68.56 655.93 61.13 649.39 57.06 Z M 592.07 44.25 C 592.07 38.95 596.46 34.64 601.85 34.64 C 607.25 34.64 611.63 38.95 611.63 44.25 C 611.63 49.55 607.25 53.86 601.85 53.86 C 596.46 53.86 592.07 49.55 592.07 44.25 Z M 601.82 74.64 L 583.72 74.64 C 584.6 65.03 592.38 57.49 601.82 57.49 C 605.09 57.49 608.31 58.41 611.11 60.15 C 611.89 60.64 612.65 61.2 613.36 61.81 L 615.73 59.05 C 614.88 58.32 613.97 57.65 613.02 57.06 C 611.85 56.33 610.61 55.73 609.32 55.24 C 612.91 52.86 615.27 48.82 615.27 44.25 C 615.27 36.94 609.25 31 601.85 31 C 594.45 31 588.43 36.94 588.43 44.25 C 588.43 48.82 590.79 52.86 594.38 55.24 C 586 58.4 580 66.71 580 76.45 C 580 77.46 580.81 78.27 581.82 78.27 L 601.82 78.27 Z M 601.9 107.36 C 602.78 97.76 610.56 90.22 620 90.22 C 623.28 90.22 626.49 91.14 629.29 92.88 C 634.27 95.97 637.54 101.41 638.1 107.36 Z M 610.25 76.97 C 610.25 71.67 614.64 67.36 620.03 67.36 C 625.43 67.36 629.81 71.67 629.81 76.97 C 629.81 82.27 625.43 86.59 620.03 86.59 C 614.64 86.59 610.25 82.27 610.25 76.97 Z M 631.21 89.79 C 630.03 89.06 628.79 88.45 627.51 87.97 C 631.09 85.59 633.45 81.55 633.45 76.97 C 633.45 69.67 627.43 63.73 620.03 63.73 C 612.64 63.73 606.62 69.67 606.62 76.97 C 606.62 81.55 608.98 85.59 612.56 87.97 C 604.19 91.13 598.18 99.43 598.18 109.18 C 598.18 110.19 599 111 600 111 L 640 111 C 641.01 111 641.82 110.19 641.82 109.18 C 641.82 101.29 637.75 93.85 631.21 89.79 Z" fill="#232f3e" stroke="none" pointer-events="all" style="fill: light-dark(rgb(35, 47, 62), rgb(189, 199, 212));"/></g><g><g transform="translate(-0.5 -0.5)"><switch><foreignObject style="overflow: visible; text-align: left;" pointer-events="none" width="100%" height="100%" requiredFeatures="http://www.w3.org/TR/SVG11/feature#Extensibility"><div xmlns="http://www.w3.org/1999/xhtml" style="display: flex; align-items: unsafe flex-end; justify-content: unsafe center; width: 1px; height: 1px; padding-top: 18px; margin-left: 620px;"><div style="box-sizing: border-box; font-size: 0; text-align: center; color: #232F3E; "><div style="display: inline-block; font-size: 12px; font-family: &quot;Helvetica&quot;; color: light-dark(#232F3E, #bdc7d4); line-height: 1.2; pointer-events: all; white-space: nowrap; "><font style="font-size: 15px;">Users</font></div></div></div></foreignObject><text x="620" y="18" fill="#232F3E" font-family="&quot;Helvetica&quot;" font-size="12px" text-anchor="middle">Users</text></switch></g></g><g><path d="M 406.37 71 L 563.63 71" fill="none" stroke="#000000" stroke-miterlimit="10" pointer-events="stroke" style="stroke: light-dark(rgb(0, 0, 0), rgb(255, 255, 255));"/><path d="M 401.12 71 L 408.12 67.5 L 406.37 71 L 408.12 74.5 Z" fill="#000000" stroke="#000000" stroke-miterlimit="10" pointer-events="all" style="fill: light-dark(rgb(0, 0, 0), rgb(255, 255, 255)); stroke: light-dark(rgb(0, 0, 0), rgb(255, 255, 255));"/><path d="M 568.88 71 L 561.88 74.5 L 563.63 71 L 561.88 67.5 Z" fill="#000000" stroke="#000000" stroke-miterlimit="10" pointer-events="all" style="fill: light-dark(rgb(0, 0, 0), rgb(255, 255, 255)); stroke: light-dark(rgb(0, 0, 0), rgb(255, 255, 255));"/></g><g><path d="M 350 323 L 350 476.63" fill="none" stroke="#000000" stroke-miterlimit="10" pointer-events="stroke" style="stroke: light-dark(rgb(0, 0, 0), rgb(255, 255, 255));"/><path d="M 350 481.88 L 346.5 474.88 L 350 476.63 L 353.5 474.88 Z" fill="#000000" stroke="#000000" stroke-miterlimit="10" pointer-events="all" style="fill: light-dark(rgb(0, 0, 0), rgb(255, 255, 255)); stroke: light-dark(rgb(0, 0, 0), rgb(255, 255, 255));"/></g><g><path d="M 300 533 L 256.37 533" fill="none" stroke="#000000" stroke-miterlimit="10" pointer-events="stroke" style="stroke: light-dark(rgb(0, 0, 0), rgb(255, 255, 255));"/><path d="M 251.12 533 L 258.12 529.5 L 256.37 533 L 258.12 536.5 Z" fill="#000000" stroke="#000000" stroke-miterlimit="10" pointer-events="all" style="fill: light-dark(rgb(0, 0, 0), rgb(255, 255, 255)); stroke: light-dark(rgb(0, 0, 0), rgb(255, 255, 255));"/></g><g><path d="M 200 583 L 200 706.63" fill="none" stroke="#000000" stroke-miterlimit="10" pointer-events="stroke" style="stroke: light-dark(rgb(0, 0, 0), rgb(255, 255, 255));"/><path d="M 200 711.88 L 196.5 704.88 L 200 706.63 L 203.5 704.88 Z" fill="#000000" stroke="#000000" stroke-miterlimit="10" pointer-events="all" style="fill: light-dark(rgb(0, 0, 0), rgb(255, 255, 255)); stroke: light-dark(rgb(0, 0, 0), rgb(255, 255, 255));"/></g><g><path d="M 228.85 483 L 317.97 328.51" fill="none" stroke="#000000" stroke-miterlimit="10" pointer-events="stroke" style="stroke: light-dark(rgb(0, 0, 0), rgb(255, 255, 255));"/><path d="M 320.6 323.97 L 320.13 331.78 L 317.97 328.51 L 314.07 328.28 Z" fill="#000000" stroke="#000000" stroke-miterlimit="10" pointer-events="all" style="fill: light-dark(rgb(0, 0, 0), rgb(255, 255, 255)); stroke: light-dark(rgb(0, 0, 0), rgb(255, 255, 255));"/></g><g><path d="M 150 483 L 250 483 L 250 583 L 150 583 Z" fill="#ed7100" stroke="none" pointer-events="all" style="fill: light-dark(rgb(237, 113, 0), rgb(216, 109, 12));"/><path d="M 181.43 551.57 L 217.14 551.57 L 217.14 515.86 L 181.43 515.86 Z M 220 515.86 L 225.71 515.86 L 225.71 518.71 L 220 518.71 L 220 524.43 L 225.71 524.43 L 225.71 527.29 L 220 527.29 L 220 531.57 L 225.71 531.57 L 225.71 534.43 L 220 534.43 L 220 540.14 L 225.71 540.14 L 225.71 543 L 220 543 L 220 548.71 L 225.71 548.71 L 225.71 551.57 L 220 551.57 L 220 551.77 C 220 553.23 218.81 554.43 217.34 554.43 L 217.14 554.43 L 217.14 560.14 L 214.29 560.14 L 214.29 554.43 L 208.57 554.43 L 208.57 560.14 L 205.71 560.14 L 205.71 554.43 L 201.43 554.43 L 201.43 560.14 L 198.57 560.14 L 198.57 554.43 L 192.86 554.43 L 192.86 560.14 L 190 560.14 L 190 554.43 L 184.29 554.43 L 184.29 560.14 L 181.43 560.14 L 181.43 554.43 L 181.23 554.43 C 179.77 554.43 178.57 553.23 178.57 551.77 L 178.57 551.57 L 174.29 551.57 L 174.29 548.71 L 178.57 548.71 L 178.57 543 L 174.29 543 L 174.29 540.14 L 178.57 540.14 L 178.57 534.43 L 174.29 534.43 L 174.29 531.57 L 178.57 531.57 L 178.57 527.29 L 174.29 527.29 L 174.29 524.43 L 178.57 524.43 L 178.57 518.71 L 174.29 518.71 L 174.29 515.86 L 178.57 515.86 L 178.57 515.66 C 178.57 514.19 179.77 513 181.23 513 L 181.43 513 L 181.43 507.29 L 184.29 507.29 L 184.29 513 L 190 513 L 190 507.29 L 192.86 507.29 L 192.86 513 L 198.57 513 L 198.57 507.29 L 201.43 507.29 L 201.43 513 L 205.71 513 L 205.71 507.29 L 208.57 507.29 L 208.57 513 L 214.29 513 L 214.29 507.29 L 217.14 507.29 L 217.14 513 L 217.34 513 C 218.81 513 220 514.19 220 515.66 Z M 201.43 569.97 C 201.43 570.06 201.35 570.14 201.25 570.14 L 163.03 570.14 C 162.94 570.14 162.86 570.06 162.86 569.97 L 162.86 531.75 C 162.86 531.65 162.94 531.57 163.03 531.57 L 171.43 531.57 L 171.43 528.71 L 163.03 528.71 C 161.36 528.71 160 530.08 160 531.75 L 160 569.97 C 160 571.64 161.36 573 163.03 573 L 201.25 573 C 202.92 573 204.29 571.64 204.29 569.97 L 204.29 563 L 201.43 563 Z M 240 496.03 L 240 534.25 C 240 535.92 238.64 537.29 236.97 537.29 L 228.57 537.29 L 228.57 534.43 L 236.97 534.43 C 237.06 534.43 237.14 534.35 237.14 534.25 L 237.14 496.03 C 237.14 495.94 237.06 495.86 236.97 495.86 L 198.75 495.86 C 198.65 495.86 198.57 495.94 198.57 496.03 L 198.57 504.43 L 195.71 504.43 L 195.71 496.03 C 195.71 494.36 197.08 493 198.75 493 L 236.97 493 C 238.64 493 240 494.36 240 496.03 Z" fill="#ffffff" stroke="none" pointer-events="all" style="fill: light-dark(rgb(255, 255, 255), rgb(18, 18, 18));"/></g><g><g transform="translate(-0.5 -0.5)"><switch><foreignObject style="overflow: visible; text-align: left;" pointer-events="none" width="100%" height="100%" requiredFeatures="http://www.w3.org/TR/SVG11/feature#Extensibility"><div xmlns="http://www.w3.org/1999/xhtml" style="display: flex; align-items: unsafe flex-end; justify-content: unsafe center; width: 98px; height: 1px; padding-top: 480px; margin-left: 151px;"><div style="box-sizing: border-box; font-size: 0; text-align: center; color: #232F3E; background-color: #ffffff; "><div style="display: inline-block; font-size: 15px; font-family: &quot;Helvetica&quot;; color: light-dark(#232F3E, #bdc7d4); line-height: 1.2; pointer-events: all; background-color: light-dark(#ffffff, var(--ge-dark-color, #121212)); white-space: normal; word-wrap: normal; ">aws-study-ec2</div></div></div></foreignObject><text x="200" y="480" fill="#232F3E" font-family="&quot;Helvetica&quot;" font-size="15px" text-anchor="middle">aws-study-ec2</text></switch></g></g><g><rect x="300" y="223" width="100" height="100" fill="none" stroke="none" pointer-events="all"/><path d="M 371.58 298.56 L 368.17 298.56 L 368.17 258.31 C 368.17 257.41 367.65 256.6 366.83 256.23 L 366.62 256.13 C 362.05 254.07 357.31 251.93 350.51 251.93 C 343.39 251.93 338.17 254.23 333.01 256.79 C 332.24 257.18 331.75 257.97 331.75 258.83 L 331.75 298.56 L 328.42 298.56 L 328.42 255.6 C 333.96 251.09 341.95 248.52 350.53 248.52 C 358.5 248.52 366.1 250.79 371.58 254.78 Z M 350.53 243.96 C 340.45 243.96 331.01 247.2 324.63 252.83 C 324.14 253.27 323.86 253.89 323.86 254.54 L 323.86 300.84 C 323.86 302.1 324.88 303.12 326.14 303.12 L 334.03 303.12 C 335.29 303.12 336.3 302.1 336.3 300.84 L 336.3 260.25 C 340.67 258.14 344.91 256.49 350.51 256.49 C 355.82 256.49 359.69 258.02 363.62 259.78 L 363.62 300.84 C 363.62 302.1 364.63 303.12 365.89 303.12 L 373.86 303.12 C 375.12 303.12 376.14 302.1 376.14 300.84 L 376.14 253.65 C 376.14 252.96 375.82 252.3 375.28 251.87 C 368.96 246.85 359.94 243.96 350.53 243.96 Z M 350 318.44 C 324.94 318.44 304.55 298.06 304.55 273 C 304.55 247.94 324.94 227.56 350 227.56 C 375.06 227.56 395.45 247.94 395.45 273 C 395.45 298.06 375.06 318.44 350 318.44 Z M 350 223 C 322.43 223 300 245.43 300 273 C 300 300.57 322.43 323 350 323 C 377.57 323 400 300.57 400 273 C 400 245.43 377.57 223 350 223 Z" fill="#8c4fff" stroke="none" pointer-events="all" style="fill: light-dark(rgb(140, 79, 255), rgb(177, 125, 255));"/></g><g><g transform="translate(-0.5 -0.5)"><switch><foreignObject style="overflow: visible; text-align: left;" pointer-events="none" width="100%" height="100%" requiredFeatures="http://www.w3.org/TR/SVG11/feature#Extensibility"><div xmlns="http://www.w3.org/1999/xhtml" style="display: flex; align-items: unsafe flex-start; justify-content: unsafe center; width: 98px; height: 1px; padding-top: 333px; margin-left: 301px;"><div style="box-sizing: border-box; font-size: 0; text-align: center; color: #232F3E; background-color: #ffffff; "><div style="display: inline-block; font-size: 12px; font-family: &quot;Helvetica&quot;; color: light-dark(#232F3E, #bdc7d4); line-height: 1.2; pointer-events: all; background-color: light-dark(#ffffff, var(--ge-dark-color, #121212)); white-space: normal; word-wrap: normal; "><font style="font-size: 15px; background-color: light-dark(#ffffff, var(--ge-dark-color, #121212));">aws-study-igw</font></div></div></div></foreignObject><text x="350" y="345" fill="#232F3E" font-family="&quot;Helvetica&quot;" font-size="12px" text-anchor="middle">aws-study-igw</text></switch></g></g><g><path d="M 300 21 L 400 21 L 400 121 L 300 121 Z" fill="#ffffff" stroke="none" pointer-events="all" style="fill: light-dark(rgb(255, 255, 255), rgb(18, 18, 18));"/><path d="M 369.22 82.72 L 362.69 89.24 L 362.69 68.12 L 359.06 68.12 L 359.06 89.04 L 352.8 82.69 L 350.21 85.24 L 359.65 94.83 C 359.99 95.17 360.46 95.37 360.94 95.37 L 360.95 95.37 C 361.43 95.37 361.89 95.18 362.23 94.84 L 371.79 85.29 Z M 346.98 78.96 L 349.55 76.39 L 339.99 66.84 C 339.65 66.5 339.19 66.31 338.71 66.31 L 338.7 66.31 C 338.22 66.31 337.75 66.5 337.41 66.85 L 327.97 76.44 L 330.56 78.99 L 336.82 72.64 L 336.82 96.83 L 340.45 96.83 L 340.45 72.43 Z M 343.31 96.86 L 356.15 96.87 L 356.16 93.24 L 343.32 93.22 Z M 390 81.52 C 390 86.04 388.63 89.69 385.92 92.38 C 381.47 96.8 375.01 96.89 374.5 96.89 L 374.48 96.89 L 365.82 96.88 L 365.83 93.25 L 374.49 93.26 C 374.56 93.26 379.94 93.22 383.38 89.78 C 385.36 87.8 386.37 85.02 386.37 81.52 C 386.37 79.37 385.78 76.16 380.68 73.03 C 378 71.39 375.49 70.85 374.54 70.7 C 373.57 70.54 372.91 69.65 373.03 68.69 C 372.7 64.88 370.92 62.22 368.11 61.37 C 365.69 60.63 363.09 61.49 361.49 63.55 C 361.09 64.08 360.45 64.34 359.78 64.24 C 359.13 64.14 358.58 63.69 358.35 63.07 C 357.23 60.05 355.61 57.51 353.53 55.52 C 350.97 53.07 343.93 47.8 333.99 51.82 C 328.3 54.12 323.83 60.73 323.83 66.87 C 323.83 67.55 323.87 68.24 323.96 68.91 C 324.07 69.79 323.53 70.62 322.69 70.87 C 322.62 70.9 322.54 70.91 322.47 70.92 C 319.12 71.77 313.63 74.3 313.63 81.82 C 313.63 87.54 316.9 90.7 319.65 92.34 C 320.58 92.9 321.66 93.2 322.77 93.2 L 333.95 93.22 L 333.95 96.85 L 322.77 96.84 C 321 96.84 319.27 96.36 317.77 95.46 C 314.87 93.72 310 89.63 310 81.82 C 310 75.07 313.79 69.93 320.22 67.8 C 320.2 67.49 320.2 67.18 320.2 66.87 C 320.2 59.23 325.54 51.31 332.63 48.45 C 340.89 45.11 349.64 46.78 356.04 52.9 C 357.92 54.69 359.48 56.84 360.69 59.32 C 363.12 57.56 366.22 57 369.17 57.89 C 373.15 59.1 375.84 62.61 376.53 67.4 C 378.59 67.91 380.73 68.8 382.58 69.93 C 387.57 72.99 390 76.78 390 81.52 Z" fill="#232f3e" stroke="none" pointer-events="all" style="fill: light-dark(rgb(35, 47, 62), rgb(189, 199, 212));"/></g><g><g transform="translate(-0.5 -0.5)"><switch><foreignObject style="overflow: visible; text-align: left;" pointer-events="none" width="100%" height="100%" requiredFeatures="http://www.w3.org/TR/SVG11/feature#Extensibility"><div xmlns="http://www.w3.org/1999/xhtml" style="display: flex; align-items: unsafe flex-end; justify-content: unsafe center; width: 1px; height: 1px; padding-top: 18px; margin-left: 350px;"><div style="box-sizing: border-box; font-size: 0; text-align: center; color: #232F3E; "><div style="display: inline-block; font-size: 12px; font-family: &quot;Helvetica&quot;; color: light-dark(#232F3E, #bdc7d4); line-height: 1.2; pointer-events: all; white-space: nowrap; "><font style="font-size: 15px;">Internet</font></div></div></div></foreignObject><text x="350" y="18" fill="#232F3E" font-family="&quot;Helvetica&quot;" font-size="12px" text-anchor="middle">Internet</text></switch></g></g><g><path d="M 350 216.63 L 350 127.37" fill="none" stroke="#000000" stroke-miterlimit="10" pointer-events="stroke" style="stroke: light-dark(rgb(0, 0, 0), rgb(255, 255, 255));"/><path d="M 350 221.88 L 346.5 214.88 L 350 216.63 L 353.5 214.88 Z" fill="#000000" stroke="#000000" stroke-miterlimit="10" pointer-events="all" style="fill: light-dark(rgb(0, 0, 0), rgb(255, 255, 255)); stroke: light-dark(rgb(0, 0, 0), rgb(255, 255, 255));"/><path d="M 350 122.12 L 353.5 129.12 L 350 127.37 L 346.5 129.12 Z" fill="#000000" stroke="#000000" stroke-miterlimit="10" pointer-events="all" style="fill: light-dark(rgb(0, 0, 0), rgb(255, 255, 255)); stroke: light-dark(rgb(0, 0, 0), rgb(255, 255, 255));"/></g></g><switch><g requiredFeatures="http://www.w3.org/TR/SVG11/feature#Extensibility"/><a transform="translate(0,-5)" xlink:href="https://www.drawio.com/doc/faq/svg-export-text-problems" target="_blank"><text text-anchor="middle" font-size="10px" x="50%" y="100%">Text is not SVG - cannot display</text></a></switch></svg>