<svg xmlns="http://www.w3.org/2000/svg" style="background: transparent; background-color: transparent;" xmlns:xlink="http://www.w3.org/1999/xlink" version="1.1" width="931px" height="944px" viewBox="-0.5 -0.5 931 944" content="&lt;mxfile&gt;&lt;diagram id=&quot;VndGa2zGvYzWXFOHkhN8&quot; name=&quot;ページ1&quot;&gt;7VzbbuM2EP2aAMmDA1HUzY++xNsCLbBoWmzbl4CWGFuILLoUbSf9+pISdSOp2HFkJ9v1JsCaI16kmXOGM0M5V3Cyev5C0Xr5K4lwcmVb0fMVnF7ZNrACj/8nJC+FZOg7hWBB40h2qgX38b+4HCmlmzjCWasjIyRh8botDEma4pAVMjkWUUp27W6PJGmvukYLrAnuQ5To0m9xxJaFNLD9Wv4TjhdLuTIA3rC4skJlZ3k32RJFZNcQwbsrOKGEsOLT6nmCE6G8Ui/FuFnH1erGKE7ZIQNgUIzYomQjH+7K9hI+dvxI+BS2txCfR9/ueadJQjZReZnP2ewhH4e9lDpakzhluZ7dMf/ltzGxrlx+ZSJat7arCNS23xYAvSXmaAvUtt8WAHV6oKwP1BtsCLRWa3pLWd9q3CD/hWOyYUmc4kmFSIsLFxRFMbfUhCSEcllKUq698ZKtEt4C/ONuGTN8v0ah0OqOs0kaRnICuGVbKl7MylHPEF+LynZuCUzvtrgwSNEnSdA6i+fVKIrDDc3iLf4NZ8XkQsrxuRafV88LQeVbtMuc2wUlm3V++z/ztYxXH/jHh1Dg5QHlcMkYJU+4fNArG/KfmcDk+DFOEkUBW0xZzOk2SuKFmJ8RsRySrQQ/5jNyrcTp4pe8NYWW1IRpiQhlSxzJR9IpIlkjVsXPDZGkzBdMVpjRF95FXq0ckfRfwJXtXdMbSNmy4QmCciCSHmhRzV2TlH+QPO3grH8QZ9F6kBLKlhhlbACufydPL+Tmwt4Lew9gL8WLWFzTaWtZI2fknZS2wPHvxqMmbUFPtIVt2lbtBm39wEBbvxfaOofRdpcNMraJXgbbdXgoXbMnzMKltPoZwXo0wPiz2SZ4BRNnNpudFF6j0dgfB6fYFdw2vCAwwMsxwMvrBV6WBq/RFsUJmsdJzMRt/i3UKAE1p+ZtItSgZTCEZjUzY832UiHURX4THBtoVd3kimxR4Q5B7g65F2y2CUOs0eYJCW62cRQ3mwkJnypkyCSicVllRQ/Y8RTXBH0dO9CEHRf2gB172Ad20PeCnY/EiorbPvyO/6HYsTu3Ne6L0xYgvH82IrEV8Yuw2YhfpIv5NfRE2GVboPxgWze5asr+9b53oonrTXe9mSdxOMg28xQX/rDagYtV23dSc+EaWLfWLbjlKp3Zzk3nuEugfQm06zgoE9NxF/tQd77PPWQ5seou/dEIADX+5vKZPfPugh5zZycIgHOCKMlToiTHNngry+Ct6gree7wV0LxVzf2S9KiL3VbN7guNLzT+bml8zgCojwBn+JEuw/M0l3EvzZ0fUAiDHxP4TqfQFU99XKxbjd4T6xbLlqcUdj8GcV23bRBDxAmgwSDA68Mgev3zRzcIDKwPNAiEnSlAUbUyROriwqBwvSJaB+76eU9kjpJ5f+WwrpOCjj1K8dJVlaqNIdm55WpLLP2C5jj5SrKY5YXV6ZwwRlZ7HX2IxWbWRlBzR7QNwETZunjQx/hZ3Ie2JYKurQ6t1zz5QeIWHxKCooc5SlAa5jdggnUiHmqMwidBujQq9RDhR7RJWD/QdpXs1rUM0DY5/0r4Ll+jQ7uRK9J4ixjeHzeCS+D4uQNH8N0EjsbzFy6/82bezO8vcNTLcn1Vq5RgzvNMwRw4UTDn69WqNaFii4LQ8jR25m6tKkru2dlVv9yhmbb+CgfTqa1qfy5re7qyPFPg24fr018NuYRZbWv4hhOeE8a9+gFi914Udu5F4LIXXfaiy16UM8o9ZC86VWEB6ntRzWcaZa+nNUayGglrIq2RuDp5W91yOhlWUIUmma8Lgd6tZKAuNMlM7kYdDQyjgTK6m+xdWaKC98nQdhubTuPKY/7vzDmhycFoOaHRS1CckQ0NceEjRGHQ5C0ENL+7GiIctktW1YsYZ0kjHf3YobcKyR8ZptmHVUaMFRCFH/kc00NZUIBdpUDFjV4rI4mydjWpkR6bXNO9wDFwlLg+OCcaTfU6BSg4jUbiTXmhlARlWRzmxkaU6eKGBTpVUzgWub58Bj7bArM2Q3DUevVeV2BDQ65BQaWM4gQxHhq1bsKkNLnCV7Gd1vbxlSx1aLdnKB5HDqo1r80zhK/PU6hAmye3YPXQhxnVPdKoCn8UKqck52crqyq7JELtgwjRp2vO8ijKM7P8PQvexJH4uXlbKtZECXR1lJSV5k+CkkCxrnMsTHwlsXSd0+FEP856M0642ejLn83GX8LD3rplc/osPW7Remm2vmIa8/utDmzPiilowNQn8zz7oHAopvaCsz9MuaZvEamY4uot92I9ae6uElVY4/CygjbeLDA8HnFvB0/5VbMGeMoi2V7wvBMVjnIK4qtxQH/G9PS09M0O4jVOS8sKTsO7qfh5D6ENNik3jk9CaEcp4Xqq6Q4ltKt868h1T4YBqOcrdWkChzogLqWJz1mauJv6ImX4UUoTOOw6GjhnuWJJaPyvqOiWKuhMM89xgK5WPs57gA5NacmRlQ9rXmlq0HjTu729SFznIeMW0evBYIHzi3JIGUsCW/zc7HsfPF7sLm+dnPatk7xbitnDAjG8Qy8dDD6eRPKE4XfxjFPYD6vU11Ls89YT9S979VZP/Fma41JSPAr2r0K8G63yMTtBfgLInrXm6B1bnuqp5miqJpUs+iSJgqvUHKF6yHhoouApxeXqC2InSBb1bw7K92kCqyxknPV9mtcp4Cgqdg0Hvqd6n8bXfXalqk+nKO1bOsMzKkpPPqWiDD7joxUFnQ9E1CGl3DeU3d5Ze1Xc6F6X7Admzb7TjUI/aFvEGZ7K+/n7/nrSO8KwUbSK05jrGjGRtXyOFKQKu/5nKQjasCXvI959x9GDOOftxztUodM5cm/erP9wWIHm+s+vwbv/AA==&lt;/diagram&gt;&lt;/mxfile&gt;"><defs/><g><g><path d="M 110 133 L 930 133 L 930 943 L 110 943 Z" fill="none" stroke="#232f3e" stroke-miterlimit="10" pointer-events="none" style="stroke: light-dark(rgb(35, 47, 62), rgb(189, 199, 212));"/><path d="M 116.09 140.18 C 116.01 140.18 115.93 140.19 115.85 140.19 C 115.5 140.19 115.15 140.23 114.81 140.32 C 114.53 140.39 114.25 140.49 113.98 140.62 C 113.9 140.65 113.84 140.7 113.79 140.76 C 113.75 140.83 113.74 140.91 113.74 140.99 L 113.74 141.32 C 113.74 141.46 113.78 141.53 113.88 141.53 L 113.99 141.53 L 114.22 141.44 C 114.45 141.35 114.69 141.27 114.94 141.21 C 115.17 141.16 115.41 141.13 115.65 141.13 C 116.04 141.09 116.43 141.2 116.73 141.44 C 116.97 141.74 117.09 142.12 117.05 142.5 L 117.05 142.99 C 116.78 142.93 116.54 142.88 116.29 142.84 C 116.05 142.81 115.81 142.79 115.57 142.79 C 114.98 142.76 114.4 142.94 113.94 143.31 C 113.54 143.65 113.32 144.15 113.34 144.68 C 113.31 145.15 113.49 145.62 113.82 145.96 C 114.18 146.29 114.66 146.46 115.15 146.44 C 115.91 146.45 116.63 146.11 117.11 145.51 C 117.18 145.66 117.24 145.79 117.31 145.91 C 117.38 146.02 117.46 146.12 117.55 146.21 C 117.6 146.27 117.67 146.31 117.75 146.31 C 117.81 146.31 117.87 146.29 117.92 146.25 L 118.34 145.97 C 118.41 145.93 118.46 145.86 118.47 145.77 C 118.47 145.72 118.45 145.67 118.42 145.62 C 118.34 145.47 118.26 145.31 118.21 145.14 C 118.15 144.95 118.12 144.75 118.13 144.55 L 118.14 142.37 C 118.2 141.77 118 141.18 117.59 140.74 C 117.17 140.39 116.64 140.19 116.09 140.18 Z M 129.89 140.19 C 129.78 140.19 129.68 140.19 129.57 140.2 C 129.29 140.2 129 140.24 128.73 140.31 C 128.47 140.38 128.23 140.5 128.01 140.66 C 127.82 140.81 127.66 140.99 127.54 141.21 C 127.42 141.43 127.35 141.67 127.36 141.92 C 127.36 142.27 127.48 142.61 127.69 142.89 C 127.97 143.22 128.34 143.46 128.76 143.56 L 129.72 143.87 C 129.97 143.93 130.2 144.05 130.39 144.22 C 130.51 144.35 130.58 144.51 130.57 144.69 C 130.58 144.94 130.45 145.18 130.23 145.31 C 129.93 145.48 129.6 145.56 129.26 145.54 C 128.99 145.54 128.72 145.51 128.46 145.45 C 128.22 145.4 127.98 145.32 127.75 145.22 L 127.58 145.15 C 127.54 145.14 127.5 145.14 127.46 145.15 C 127.36 145.15 127.31 145.22 127.31 145.36 L 127.31 145.69 C 127.31 145.76 127.32 145.82 127.35 145.88 C 127.4 145.97 127.47 146.03 127.56 146.07 C 127.8 146.19 128.06 146.28 128.32 146.34 C 128.66 146.41 129 146.45 129.35 146.45 L 129.33 146.46 C 129.66 146.45 129.98 146.4 130.29 146.3 C 130.55 146.22 130.8 146.09 131.01 145.92 C 131.21 145.77 131.38 145.57 131.49 145.34 C 131.61 145.1 131.67 144.83 131.66 144.56 C 131.67 144.23 131.56 143.9 131.36 143.63 C 131.09 143.32 130.73 143.09 130.33 142.99 L 129.39 142.69 C 129.13 142.61 128.88 142.49 128.67 142.32 C 128.54 142.2 128.47 142.03 128.47 141.85 C 128.46 141.61 128.58 141.38 128.79 141.25 C 129.06 141.11 129.36 141.05 129.67 141.06 C 130.11 141.06 130.55 141.14 130.96 141.32 C 131.04 141.37 131.12 141.4 131.21 141.41 C 131.31 141.41 131.36 141.34 131.36 141.19 L 131.36 140.88 C 131.37 140.8 131.35 140.72 131.31 140.66 C 131.25 140.59 131.18 140.54 131.11 140.49 L 130.83 140.38 L 130.45 140.27 L 130.01 140.2 C 129.97 140.2 129.93 140.19 129.89 140.19 Z M 126.02 140.35 C 125.94 140.35 125.86 140.38 125.79 140.42 C 125.72 140.5 125.68 140.59 125.66 140.69 L 124.51 145.14 L 123.47 140.71 C 123.45 140.61 123.41 140.52 123.34 140.44 C 123.26 140.39 123.17 140.37 123.07 140.38 L 122.54 140.38 C 122.44 140.37 122.35 140.39 122.27 140.44 C 122.2 140.51 122.15 140.61 122.14 140.71 L 121.09 145.14 L 119.97 140.7 C 119.95 140.6 119.91 140.51 119.84 140.44 C 119.76 140.39 119.67 140.36 119.58 140.37 L 118.92 140.37 C 118.81 140.37 118.76 140.43 118.76 140.54 C 118.77 140.63 118.79 140.72 118.82 140.81 L 120.38 145.95 C 120.4 146.05 120.45 146.14 120.52 146.21 C 120.6 146.26 120.69 146.29 120.78 146.28 L 121.36 146.26 C 121.46 146.27 121.55 146.25 121.63 146.19 C 121.7 146.12 121.74 146.03 121.76 145.93 L 122.79 141.64 L 123.82 145.93 C 123.83 146.03 123.88 146.12 123.95 146.19 C 124.03 146.25 124.12 146.27 124.21 146.26 L 124.78 146.26 C 124.88 146.27 124.97 146.25 125.04 146.2 C 125.11 146.13 125.16 146.03 125.18 145.94 L 126.79 140.79 C 126.84 140.72 126.84 140.63 126.84 140.63 C 126.84 140.59 126.84 140.56 126.84 140.52 C 126.84 140.48 126.82 140.43 126.79 140.4 C 126.76 140.37 126.72 140.35 126.67 140.36 L 126.05 140.36 C 126.04 140.36 126.03 140.36 126.02 140.35 Z M 115.65 143.62 C 115.7 143.62 115.75 143.62 115.8 143.62 L 116.43 143.62 C 116.64 143.64 116.85 143.67 117.06 143.71 L 117.06 144.01 C 117.07 144.21 117.05 144.4 117 144.59 C 116.96 144.75 116.88 144.9 116.77 145.01 C 116.61 145.21 116.39 145.36 116.14 145.44 C 115.91 145.52 115.67 145.56 115.43 145.56 C 115.18 145.6 114.93 145.53 114.73 145.37 C 114.55 145.18 114.46 144.92 114.49 144.66 C 114.47 144.36 114.59 144.08 114.81 143.89 C 115.06 143.72 115.35 143.62 115.65 143.62 Z M 131.04 147.72 C 130.34 147.73 129.51 147.89 128.88 148.33 C 128.69 148.47 128.72 148.63 128.94 148.63 C 129.64 148.54 131.21 148.35 131.5 148.71 C 131.78 149.06 131.19 150.54 130.94 151.21 C 130.86 151.41 131.03 151.49 131.21 151.34 C 132.39 150.36 132.72 148.3 132.46 148 C 132.32 147.85 131.74 147.71 131.04 147.72 Z M 112.65 148.1 C 112.5 148.12 112.42 148.3 112.58 148.44 C 115.29 150.89 118.82 152.23 122.48 152.21 C 125.37 152.22 128.2 151.36 130.59 149.74 C 130.95 149.47 130.63 149.07 130.26 149.23 C 127.87 150.24 125.3 150.76 122.71 150.77 C 119.23 150.78 115.82 149.87 112.81 148.14 C 112.75 148.11 112.69 148.1 112.65 148.1 Z M 110 133 L 135 133 L 135 158 L 110 158 Z" fill="#232f3e" stroke="none" pointer-events="all" style="fill: light-dark(rgb(35, 47, 62), rgb(189, 199, 212));"/></g><g><g transform="translate(-0.5 -0.5)"><switch><foreignObject style="overflow: visible; text-align: left;" pointer-events="none" width="100%" height="100%" requiredFeatures="http://www.w3.org/TR/SVG11/feature#Extensibility"><div xmlns="http://www.w3.org/1999/xhtml" style="display: flex; align-items: unsafe flex-start; justify-content: unsafe flex-start; width: 788px; height: 1px; padding-top: 140px; margin-left: 142px;"><div style="box-sizing: border-box; font-size: 0; text-align: left; color: #232F3E; "><div style="display: inline-block; font-size: 15px; font-family: &quot;Helvetica&quot;; color: light-dark(#232F3E, #bdc7d4); line-height: 1.2; pointer-events: all; white-space: normal; word-wrap: normal; "><font>AWS Cloud</font></div></div></div></foreignObject><text x="142" y="155" fill="#232F3E" font-family="&quot;Helvetica&quot;" font-size="15px">AWS Cloud</text></switch></g></g><g><path d="M 130 213 L 910 213 L 910 923 L 130 923 Z" fill="none" stroke="#00a4a6" stroke-miterlimit="10" stroke-dasharray="3 3" pointer-events="none" style="stroke: light-dark(rgb(0, 164, 166), rgb(15, 156, 158));"/><path d="M 138.06 216.47 C 137.47 216.47 137 216.95 137 217.53 C 137 217.99 137.3 218.39 137.71 218.53 L 137.71 233.82 L 135.95 233.82 L 135.95 234.57 L 140.16 234.57 L 140.16 233.82 L 138.46 233.82 L 138.46 225.75 L 149.84 225.75 L 147.19 222.59 L 149.83 219.36 L 138.46 219.36 L 138.46 218.51 C 138.85 218.35 139.12 217.97 139.12 217.53 C 139.12 216.95 138.64 216.47 138.06 216.47 Z M 138.06 217.22 C 138.23 217.22 138.37 217.35 138.37 217.53 C 138.37 217.71 138.23 217.84 138.06 217.84 C 137.88 217.84 137.75 217.71 137.75 217.53 C 137.75 217.35 137.88 217.22 138.06 217.22 Z M 138.46 220.11 L 148.25 220.11 L 146.22 222.6 L 148.23 225 L 138.46 225 Z M 130 238 L 130 213 L 155 213 L 155 238 Z" fill="#00a4a6" stroke="none" pointer-events="all" style="fill: light-dark(rgb(0, 164, 166), rgb(15, 156, 158));"/></g><g><g transform="translate(-0.5 -0.5)"><switch><foreignObject style="overflow: visible; text-align: left;" pointer-events="none" width="100%" height="100%" requiredFeatures="http://www.w3.org/TR/SVG11/feature#Extensibility"><div xmlns="http://www.w3.org/1999/xhtml" style="display: flex; align-items: unsafe flex-start; justify-content: unsafe flex-start; width: 748px; height: 1px; padding-top: 220px; margin-left: 162px;"><div style="box-sizing: border-box; font-size: 0; text-align: left; color: #147EBA; "><div style="display: inline-block; font-size: 15px; font-family: &quot;Helvetica&quot;; color: light-dark(#147EBA, #45a0d4); line-height: 1.2; pointer-events: all; white-space: normal; word-wrap: normal; "><font>ap-northeast-1(Tokyo)</font></div></div></div></foreignObject><text x="162" y="235" fill="#147EBA" font-family="&quot;Helvetica&quot;" font-size="15px">ap-northeast-1(Tokyo)</text></switch></g></g><g><path d="M 150 293 L 890 293 L 890 903 L 150 903 Z" fill="none" stroke="#8c4fff" stroke-miterlimit="10" pointer-events="all" style="stroke: light-dark(rgb(140, 79, 255), rgb(177, 125, 255));"/><path d="M 150 293 L 150 318 L 175 318 L 175 293 Z M 160.99 297.38 C 162.29 297.36 163.51 297.77 164.32 298.55 C 164.78 299 165.14 299.51 165.42 300.1 C 165.8 299.82 166.29 299.69 166.89 299.72 C 168 299.77 168.85 300.79 169.03 302.22 C 169.97 302.3 170.58 302.77 170.91 303.66 L 170.33 303.88 C 170.06 303.16 169.57 302.83 168.74 302.83 C 168.58 302.83 168.44 302.7 168.43 302.54 C 168.35 301.08 167.55 300.38 166.85 300.34 C 166.26 300.31 165.83 300.48 165.55 300.83 C 165.48 300.93 165.38 300.97 165.26 300.96 C 165.15 300.94 165.05 300.86 165.01 300.75 C 164.76 300.06 164.39 299.49 163.88 298.99 C 162.76 297.91 160.7 297.68 158.86 298.44 C 157.57 298.96 156.74 300.32 156.74 301.88 C 156.74 302.06 156.76 302.32 156.78 302.48 C 156.8 302.64 156.7 302.79 156.55 302.82 C 155.11 303.18 154.37 304.05 154.37 305.4 C 154.37 305.46 154.37 305.53 154.38 305.59 C 154.47 307.15 155.44 308.15 156.87 308.15 L 161.87 308.15 L 161.87 308.77 L 156.87 308.77 C 155.11 308.77 153.86 307.51 153.76 305.64 C 153.75 305.57 153.75 305.48 153.75 305.4 C 153.75 303.83 154.57 302.76 156.14 302.29 C 156.12 302.15 156.12 302 156.12 301.88 C 156.12 300.06 157.1 298.48 158.63 297.86 C 159.4 297.54 160.21 297.38 160.99 297.38 Z M 167.21 302.83 C 167.25 302.83 167.29 302.84 167.33 302.86 L 171.05 304.5 C 171.17 304.55 171.24 304.66 171.24 304.79 L 171.24 309.4 C 171.24 309.47 171.26 311.43 169.99 312.72 C 169.28 313.43 168.33 313.8 167.15 313.8 C 165.97 313.8 165.02 313.43 164.33 312.72 C 163.08 311.43 163.12 309.47 163.12 309.39 L 163.12 304.73 C 163.12 304.61 163.19 304.49 163.31 304.45 L 167.08 302.86 C 167.12 302.84 167.16 302.83 167.21 302.83 Z M 167.2 303.49 L 163.74 304.94 L 163.74 309.4 C 163.74 309.42 163.71 311.19 164.78 312.29 C 165.35 312.87 166.15 313.17 167.15 313.17 C 168.15 313.17 168.96 312.87 169.54 312.28 C 170.62 311.18 170.61 309.42 170.61 309.4 L 170.61 304.99 Z M 167.2 304.57 C 167.25 304.57 167.29 304.58 167.33 304.59 L 169.79 305.65 C 169.91 305.7 169.98 305.81 169.98 305.94 L 169.98 310.02 C 169.87 310.93 169.13 312.56 167.15 312.56 C 165.23 312.56 164.49 310.93 164.37 310.06 L 164.37 305.94 C 164.37 305.81 164.45 305.7 164.56 305.65 L 167.08 304.59 C 167.12 304.58 167.16 304.57 167.2 304.57 Z M 166.89 305.35 L 164.99 306.15 L 164.99 310.02 C 165 310.05 165.27 311.75 166.89 311.92 Z M 167.52 305.35 L 167.52 311.91 C 169.11 311.69 169.35 310.05 169.36 309.98 L 169.36 306.14 Z" fill="#8c4fff" stroke="none" pointer-events="all" style="fill: light-dark(rgb(140, 79, 255), rgb(177, 125, 255));"/></g><g><g transform="translate(-0.5 -0.5)"><switch><foreignObject style="overflow: visible; text-align: left;" pointer-events="none" width="100%" height="100%" requiredFeatures="http://www.w3.org/TR/SVG11/feature#Extensibility"><div xmlns="http://www.w3.org/1999/xhtml" style="display: flex; align-items: unsafe flex-start; justify-content: unsafe flex-start; width: 708px; height: 1px; padding-top: 300px; margin-left: 182px;"><div style="box-sizing: border-box; font-size: 0; text-align: left; color: #AAB7B8; "><div style="display: inline-block; font-size: 15px; font-family: &quot;Helvetica&quot;; color: light-dark(#AAB7B8, #4a5556); line-height: 1.2; pointer-events: all; white-space: normal; word-wrap: normal; "><font>aws-study-vpc</font></div></div></div></foreignObject><text x="182" y="315" fill="#AAB7B8" font-family="&quot;Helvetica&quot;" font-size="15px">aws-study-vpc</text></switch></g></g><g><rect x="530" y="353" width="340" height="530" fill="none" stroke="#147eba" stroke-dasharray="3 3" pointer-events="all" style="stroke: light-dark(rgb(20, 126, 186), rgb(69, 160, 212));"/></g><g><g transform="translate(-0.5 -0.5)"><switch><foreignObject style="overflow: visible; text-align: left;" pointer-events="none" width="100%" height="100%" requiredFeatures="http://www.w3.org/TR/SVG11/feature#Extensibility"><div xmlns="http://www.w3.org/1999/xhtml" style="display: flex; align-items: unsafe flex-start; justify-content: unsafe center; width: 338px; height: 1px; padding-top: 360px; margin-left: 531px;"><div style="box-sizing: border-box; font-size: 0; text-align: center; color: #147EBA; "><div style="display: inline-block; font-size: 15px; font-family: &quot;Helvetica&quot;; color: light-dark(#147EBA, #45a0d4); line-height: 1.2; pointer-events: all; white-space: normal; word-wrap: normal; ">Availability Zone<br />ap-northeast-1c</div></div></div></foreignObject><text x="700" y="375" fill="#147EBA" font-family="&quot;Helvetica&quot;" font-size="15px" text-anchor="middle">Availability Zone...</text></switch></g></g><g><rect x="170" y="353" width="340" height="530" fill="none" stroke="#147eba" stroke-dasharray="3 3" pointer-events="all" style="stroke: light-dark(rgb(20, 126, 186), rgb(69, 160, 212));"/></g><g><g transform="translate(-0.5 -0.5)"><switch><foreignObject style="overflow: visible; text-align: left;" pointer-events="none" width="100%" height="100%" requiredFeatures="http://www.w3.org/TR/SVG11/feature#Extensibility"><div xmlns="http://www.w3.org/1999/xhtml" style="display: flex; align-items: unsafe flex-start; justify-content: unsafe center; width: 338px; height: 1px; padding-top: 360px; margin-left: 171px;"><div style="box-sizing: border-box; font-size: 0; text-align: center; color: #147EBA; "><div style="display: inline-block; font-size: 15px; font-family: &quot;Helvetica&quot;; color: light-dark(#147EBA, #45a0d4); line-height: 1.2; pointer-events: all; white-space: normal; word-wrap: normal; ">Availability Zone<br />ap-northeast-1a</div></div></div></foreignObject><text x="340" y="375" fill="#147EBA" font-family="&quot;Helvetica&quot;" font-size="15px" text-anchor="middle">Availability Zone...</text></switch></g></g><g><path d="M 550 403 L 850 403 L 850 623 L 550 623 Z" fill="#f2f6e8" stroke="none" pointer-events="none" style="fill: light-dark(rgb(242, 246, 232), rgb(26, 29, 17));"/><path d="M 550 403 L 575 403 L 575 428 L 550 428 Z M 562.52 406.21 C 561.4 406.21 560.31 406.63 559.49 407.39 C 558.67 408.11 558.2 409.15 558.2 410.24 L 558.2 412.78 L 555.89 412.78 C 555.8 412.78 555.7 412.82 555.64 412.89 C 555.57 412.95 555.54 413.04 555.54 413.13 L 555.54 424.43 C 555.54 424.63 555.7 424.79 555.89 424.79 L 569.11 424.79 C 569.3 424.79 569.46 424.63 569.46 424.43 L 569.46 413.15 C 569.47 413.06 569.43 412.97 569.36 412.9 C 569.3 412.83 569.21 412.79 569.11 412.79 L 566.81 412.79 L 566.81 410.29 C 566.8 409.21 566.35 408.18 565.56 407.44 C 564.74 406.65 563.65 406.22 562.52 406.21 Z M 562.51 406.93 C 563.46 406.92 564.37 407.28 565.06 407.93 C 565.72 408.54 566.1 409.4 566.1 410.29 L 566.1 412.79 L 558.88 412.79 L 558.89 410.26 C 558.9 409.36 559.28 408.51 559.95 407.91 C 560.65 407.27 561.57 406.92 562.51 406.93 Z M 556.24 413.5 L 568.76 413.5 L 568.75 424.07 L 556.24 424.07 Z M 562.51 415.74 C 561.48 415.73 560.61 416.51 560.51 417.53 C 560.42 418.56 561.13 419.48 562.14 419.66 L 562.14 422.44 L 562.86 422.44 L 562.86 419.66 C 563.79 419.49 564.47 418.67 564.48 417.72 C 564.48 416.63 563.6 415.75 562.51 415.74 Z M 562.39 416.45 C 562.43 416.45 562.47 416.45 562.51 416.46 C 562.84 416.46 563.16 416.59 563.4 416.83 C 563.64 417.07 563.77 417.39 563.76 417.72 C 563.77 418.06 563.64 418.38 563.4 418.61 C 563.16 418.85 562.84 418.98 562.51 418.98 C 562.04 419.02 561.6 418.8 561.34 418.42 C 561.08 418.03 561.06 417.53 561.28 417.12 C 561.5 416.71 561.93 416.46 562.39 416.45 Z" fill="#7aa116" stroke="none" pointer-events="all" style="fill: light-dark(rgb(122, 161, 22), rgb(97, 130, 11));"/></g><g><g transform="translate(-0.5 -0.5)"><switch><foreignObject style="overflow: visible; text-align: left;" pointer-events="none" width="100%" height="100%" requiredFeatures="http://www.w3.org/TR/SVG11/feature#Extensibility"><div xmlns="http://www.w3.org/1999/xhtml" style="display: flex; align-items: unsafe flex-start; justify-content: unsafe flex-start; width: 268px; height: 1px; padding-top: 410px; margin-left: 582px;"><div style="box-sizing: border-box; font-size: 0; text-align: left; color: #248814; "><div style="display: inline-block; font-size: 15px; font-family: &quot;Helvetica&quot;; color: light-dark(#248814, #55ab47); line-height: 1.2; pointer-events: all; white-space: normal; word-wrap: normal; "><span style="color: light-dark(rgb(36, 136, 20), rgb(85, 171, 71));"><span style="color: light-dark(rgb(36, 136, 20), rgb(85, 171, 71));">aws-study-public-subnet-1c</span><br />(10.0.1.0/24)</span></div></div></div></foreignObject><text x="582" y="425" fill="#248814" font-family="&quot;Helvetica&quot;" font-size="15px">aws-study-public-subnet-1c...</text></switch></g></g><g><path d="M 190 403 L 490 403 L 490 623 L 190 623 Z" fill="#f2f6e8" stroke="none" pointer-events="none" style="fill: light-dark(rgb(242, 246, 232), rgb(26, 29, 17));"/><path d="M 190 403 L 215 403 L 215 428 L 190 428 Z M 202.52 406.21 C 201.4 406.21 200.31 406.63 199.48 407.39 C 198.67 408.11 198.2 409.15 198.2 410.24 L 198.2 412.78 L 195.89 412.78 C 195.8 412.78 195.7 412.82 195.64 412.89 C 195.57 412.95 195.54 413.04 195.54 413.13 L 195.54 424.43 C 195.54 424.63 195.7 424.79 195.89 424.79 L 209.11 424.79 C 209.3 424.79 209.46 424.63 209.46 424.43 L 209.46 413.15 C 209.47 413.06 209.43 412.97 209.36 412.9 C 209.3 412.83 209.21 412.79 209.11 412.79 L 206.81 412.79 L 206.81 410.29 C 206.8 409.21 206.35 408.18 205.56 407.44 C 204.74 406.65 203.65 406.22 202.52 406.21 Z M 202.51 406.93 C 203.46 406.92 204.37 407.28 205.06 407.93 C 205.72 408.54 206.1 409.4 206.1 410.29 L 206.1 412.79 L 198.88 412.79 L 198.89 410.26 C 198.9 409.36 199.28 408.51 199.95 407.91 C 200.65 407.27 201.57 406.92 202.51 406.93 Z M 196.24 413.5 L 208.76 413.5 L 208.75 424.07 L 196.24 424.07 Z M 202.51 415.74 C 201.48 415.73 200.61 416.51 200.51 417.53 C 200.42 418.56 201.13 419.48 202.14 419.66 L 202.14 422.44 L 202.86 422.44 L 202.86 419.66 C 203.79 419.49 204.47 418.67 204.48 417.72 C 204.48 416.63 203.6 415.75 202.51 415.74 Z M 202.39 416.45 C 202.43 416.45 202.47 416.45 202.51 416.46 C 202.84 416.46 203.16 416.59 203.4 416.83 C 203.64 417.07 203.77 417.39 203.76 417.72 C 203.77 418.06 203.64 418.38 203.4 418.61 C 203.16 418.85 202.84 418.98 202.51 418.98 C 202.04 419.02 201.6 418.8 201.34 418.42 C 201.08 418.03 201.06 417.53 201.28 417.12 C 201.5 416.71 201.93 416.46 202.39 416.45 Z" fill="#7aa116" stroke="none" pointer-events="all" style="fill: light-dark(rgb(122, 161, 22), rgb(97, 130, 11));"/></g><g><g transform="translate(-0.5 -0.5)"><switch><foreignObject style="overflow: visible; text-align: left;" pointer-events="none" width="100%" height="100%" requiredFeatures="http://www.w3.org/TR/SVG11/feature#Extensibility"><div xmlns="http://www.w3.org/1999/xhtml" style="display: flex; align-items: unsafe flex-start; justify-content: unsafe flex-start; width: 268px; height: 1px; padding-top: 410px; margin-left: 222px;"><div style="box-sizing: border-box; font-size: 0; text-align: left; color: #248814; "><div style="display: inline-block; font-size: 15px; font-family: &quot;Helvetica&quot;; color: light-dark(#248814, #55ab47); line-height: 1.2; pointer-events: all; white-space: normal; word-wrap: normal; ">aws-study-subnet-1a<br />(10.0.0.0/24)</div></div></div></foreignObject><text x="222" y="425" fill="#248814" font-family="&quot;Helvetica&quot;" font-size="15px">aws-study-subnet-1a...</text></switch></g></g><g><rect x="455" y="453" width="130" height="160" fill="none" stroke="#dd3522" stroke-width="2" pointer-events="all" style="stroke: light-dark(rgb(221, 53, 34), rgb(255, 133, 117));"/></g><g><g transform="translate(-0.5 -0.5)"><switch><foreignObject style="overflow: visible; text-align: left;" pointer-events="none" width="100%" height="100%" requiredFeatures="http://www.w3.org/TR/SVG11/feature#Extensibility"><div xmlns="http://www.w3.org/1999/xhtml" style="display: flex; align-items: unsafe flex-start; justify-content: unsafe center; width: 128px; height: 1px; padding-top: 460px; margin-left: 456px;"><div style="box-sizing: border-box; font-size: 0; text-align: center; color: #DD3522; "><div style="display: inline-block; font-size: 12px; font-family: &quot;Helvetica&quot;; color: light-dark(#DD3522, #ff8575); line-height: 1.2; pointer-events: all; white-space: normal; word-wrap: normal; ">Security group</div></div></div></foreignObject><text x="520" y="472" fill="#DD3522" font-family="&quot;Helvetica&quot;" font-size="12px" text-anchor="middle">Security group</text></switch></g></g><g><rect x="280" y="453" width="130" height="160" fill="none" stroke="#dd3522" stroke-width="2" pointer-events="all" style="stroke: light-dark(rgb(221, 53, 34), rgb(255, 133, 117));"/></g><g><g transform="translate(-0.5 -0.5)"><switch><foreignObject style="overflow: visible; text-align: left;" pointer-events="none" width="100%" height="100%" requiredFeatures="http://www.w3.org/TR/SVG11/feature#Extensibility"><div xmlns="http://www.w3.org/1999/xhtml" style="display: flex; align-items: unsafe flex-start; justify-content: unsafe center; width: 128px; height: 1px; padding-top: 460px; margin-left: 281px;"><div style="box-sizing: border-box; font-size: 0; text-align: center; color: #DD3522; "><div style="display: inline-block; font-size: 12px; font-family: &quot;Helvetica&quot;; color: light-dark(#DD3522, #ff8575); line-height: 1.2; pointer-events: all; white-space: normal; word-wrap: normal; ">Security group</div></div></div></foreignObject><text x="345" y="472" fill="#DD3522" font-family="&quot;Helvetica&quot;" font-size="12px" text-anchor="middle">Security group</text></switch></g></g><g><rect x="470" y="483" width="100" height="100" fill="none" stroke="none" pointer-events="all"/><path d="M 520 483 C 492.43 483 470 505.43 470 533 C 470 560.57 492.43 583 520 583 C 547.57 583 570 560.57 570 533 C 570 505.43 547.57 483 520 483 Z M 520 578.45 C 494.94 578.45 474.55 558.06 474.55 533 C 474.55 507.94 494.94 487.55 520 487.55 C 545.06 487.55 565.45 507.94 565.45 533 C 565.45 558.06 545.06 578.45 520 578.45 Z M 549.62 546.64 L 546.14 546.64 L 546.14 538.97 C 546.14 537.71 545.12 536.69 543.86 536.69 L 538.18 536.69 L 538.18 529.02 C 538.18 527.77 537.16 526.75 535.91 526.75 L 522.27 526.75 L 522.27 521.35 L 535.91 521.35 C 537.16 521.35 538.18 520.34 538.18 519.08 L 538.18 501.18 C 538.18 499.93 537.16 498.91 535.91 498.91 L 504.09 498.91 C 502.84 498.91 501.82 499.93 501.82 501.18 L 501.82 519.08 C 501.82 520.34 502.84 521.35 504.09 521.35 L 517.73 521.35 L 517.73 526.75 L 504.09 526.75 C 502.84 526.75 501.82 527.77 501.82 529.02 L 501.82 536.69 L 496.14 536.69 C 494.88 536.69 493.87 537.71 493.87 538.97 L 493.87 546.64 L 490.37 546.64 C 489.12 546.64 488.1 547.65 488.1 548.91 L 488.1 558.85 C 488.1 560.11 489.12 561.12 490.37 561.12 L 500.12 561.12 C 501.37 561.12 502.39 560.11 502.39 558.85 L 502.39 548.91 C 502.39 547.65 501.37 546.64 500.12 546.64 L 498.41 546.64 L 498.41 541.24 L 507.79 541.24 L 507.79 546.64 L 506.08 546.64 C 504.82 546.64 503.81 547.65 503.81 548.91 L 503.81 558.85 C 503.81 560.11 504.82 561.12 506.08 561.12 L 516.02 561.12 C 517.28 561.12 518.3 560.11 518.3 558.85 L 518.3 548.91 C 518.3 547.65 517.28 546.64 516.02 546.64 L 512.33 546.64 L 512.33 538.97 C 512.33 537.71 511.31 536.69 510.06 536.69 L 506.37 536.69 L 506.37 531.3 L 533.64 531.3 L 533.64 536.69 L 529.94 536.69 C 528.69 536.69 527.67 537.71 527.67 538.97 L 527.67 546.64 L 523.98 546.64 C 522.72 546.64 521.71 547.65 521.71 548.91 L 521.71 558.85 C 521.71 560.11 522.72 561.12 523.98 561.12 L 533.92 561.12 C 535.18 561.12 536.19 560.11 536.19 558.85 L 536.19 548.91 C 536.19 547.65 535.18 546.64 533.92 546.64 L 532.22 546.64 L 532.22 541.24 L 541.59 541.24 L 541.59 546.64 L 539.75 546.64 C 538.49 546.64 537.48 547.65 537.48 548.91 L 537.48 558.85 C 537.48 560.11 538.49 561.12 539.75 561.12 L 549.62 561.12 C 550.88 561.12 551.9 560.11 551.9 558.85 L 551.9 548.91 C 551.9 547.65 550.88 546.64 549.62 546.64 Z M 506.37 516.81 L 506.37 503.46 L 533.64 503.46 L 533.64 516.81 Z M 492.65 556.58 L 492.65 551.18 L 497.84 551.18 L 497.84 556.58 Z M 508.35 556.58 L 508.35 551.18 L 513.75 551.18 L 513.75 556.58 Z M 526.25 556.58 L 526.25 551.18 L 531.65 551.18 L 531.65 556.58 Z M 542.02 556.58 L 542.02 551.18 L 547.35 551.18 L 547.35 556.58 Z" fill="#8c4fff" stroke="none" pointer-events="all" style="fill: light-dark(rgb(140, 79, 255), rgb(177, 125, 255));"/></g><g><g transform="translate(-0.5 -0.5)"><switch><foreignObject style="overflow: visible; text-align: left;" pointer-events="none" width="100%" height="100%" requiredFeatures="http://www.w3.org/TR/SVG11/feature#Extensibility"><div xmlns="http://www.w3.org/1999/xhtml" style="display: flex; align-items: unsafe flex-start; justify-content: unsafe center; width: 98px; height: 1px; padding-top: 590px; margin-left: 471px;"><div style="box-sizing: border-box; font-size: 0; text-align: center; color: #232F3E; background-color: #ffffff; "><div style="display: inline-block; font-size: 12px; font-family: &quot;Helvetica&quot;; color: light-dark(#232F3E, #bdc7d4); line-height: 1.2; pointer-events: all; background-color: light-dark(#ffffff, var(--ge-dark-color, #121212)); white-space: normal; word-wrap: normal; "><font style="font-size: 15px;">aws-study-alb</font></div></div></div></foreignObject><text x="520" y="602" fill="#232F3E" font-family="&quot;Helvetica&quot;" font-size="12px" text-anchor="middle">aws-study-alb</text></switch></g></g><g><path d="M 190 643 L 491 643 L 491 863 L 190 863 Z" fill="#e6f6f7" stroke="none" pointer-events="none" style="fill: light-dark(rgb(230, 246, 247), rgb(18, 31, 32));"/><path d="M 190 643 L 215 643 L 215 668 L 190 668 Z M 202.52 646.21 C 201.4 646.21 200.31 646.63 199.48 647.39 C 198.67 648.11 198.2 649.15 198.2 650.24 L 198.2 652.78 L 195.89 652.78 C 195.8 652.78 195.7 652.82 195.64 652.89 C 195.57 652.95 195.54 653.04 195.54 653.13 L 195.54 664.43 C 195.54 664.63 195.7 664.79 195.89 664.79 L 209.11 664.79 C 209.3 664.79 209.46 664.63 209.46 664.43 L 209.46 653.15 C 209.47 653.06 209.43 652.97 209.36 652.9 C 209.3 652.83 209.21 652.79 209.11 652.79 L 206.81 652.79 L 206.81 650.29 C 206.8 649.21 206.35 648.18 205.56 647.44 C 204.74 646.65 203.65 646.22 202.52 646.21 Z M 202.51 646.93 C 203.46 646.92 204.37 647.28 205.06 647.93 C 205.72 648.54 206.1 649.4 206.1 650.29 L 206.1 652.79 L 198.88 652.79 L 198.89 650.26 C 198.9 649.36 199.28 648.51 199.95 647.91 C 200.65 647.27 201.57 646.92 202.51 646.93 Z M 196.24 653.5 L 208.76 653.5 L 208.75 664.07 L 196.24 664.07 Z M 202.51 655.74 C 201.48 655.73 200.61 656.51 200.51 657.53 C 200.42 658.56 201.13 659.48 202.14 659.66 L 202.14 662.44 L 202.86 662.44 L 202.86 659.66 C 203.79 659.49 204.47 658.67 204.48 657.72 C 204.48 656.63 203.6 655.75 202.51 655.74 Z M 202.39 656.45 C 202.43 656.45 202.47 656.45 202.51 656.46 C 202.84 656.46 203.16 656.59 203.4 656.83 C 203.64 657.07 203.77 657.39 203.76 657.72 C 203.77 658.06 203.64 658.38 203.4 658.61 C 203.16 658.85 202.84 658.98 202.51 658.98 C 202.04 659.02 201.6 658.8 201.34 658.42 C 201.08 658.03 201.06 657.53 201.28 657.12 C 201.5 656.71 201.93 656.46 202.39 656.45 Z" fill="#00a4a6" stroke="none" pointer-events="all" style="fill: light-dark(rgb(0, 164, 166), rgb(15, 156, 158));"/></g><g><g transform="translate(-0.5 -0.5)"><switch><foreignObject style="overflow: visible; text-align: left;" pointer-events="none" width="100%" height="100%" requiredFeatures="http://www.w3.org/TR/SVG11/feature#Extensibility"><div xmlns="http://www.w3.org/1999/xhtml" style="display: flex; align-items: unsafe flex-start; justify-content: unsafe flex-start; width: 269px; height: 1px; padding-top: 650px; margin-left: 222px;"><div style="box-sizing: border-box; font-size: 0; text-align: left; color: #147EBA; "><div style="display: inline-block; font-size: 15px; font-family: &quot;Helvetica&quot;; color: light-dark(#147EBA, #45a0d4); line-height: 1.2; pointer-events: all; white-space: normal; word-wrap: normal; ">aws-study-private-subnet-1a<br />(10.0.10.0/24)</div></div></div></foreignObject><text x="222" y="665" fill="#147EBA" font-family="&quot;Helvetica&quot;" font-size="15px">aws-study-private-subnet-1a...</text></switch></g></g><g><rect x="350" y="673" width="60" height="20" rx="3" ry="3" fill="#ffffff" stroke="#000000" pointer-events="all" style="fill: light-dark(#ffffff, var(--ge-dark-color, #121212)); stroke: light-dark(rgb(0, 0, 0), rgb(255, 255, 255));"/></g><g><g transform="translate(-0.5 -0.5)"><switch><foreignObject style="overflow: visible; text-align: left;" pointer-events="none" width="100%" height="100%" requiredFeatures="http://www.w3.org/TR/SVG11/feature#Extensibility"><div xmlns="http://www.w3.org/1999/xhtml" style="display: flex; align-items: unsafe center; justify-content: unsafe center; width: 58px; height: 1px; padding-top: 683px; margin-left: 351px;"><div style="box-sizing: border-box; font-size: 0; text-align: center; color: #000000; "><div style="display: inline-block; font-size: 12px; font-family: &quot;Helvetica&quot;; color: light-dark(#000000, #ffffff); line-height: 1.2; pointer-events: all; white-space: normal; word-wrap: normal; ">port 3306</div></div></div></foreignObject><text x="380" y="687" fill="light-dark(#000000, #ffffff)" font-family="&quot;Helvetica&quot;" font-size="12px" text-anchor="middle">port 3306</text></switch></g></g><g><rect x="280" y="693" width="130" height="160" fill="none" stroke="#dd3522" stroke-width="2" pointer-events="all" style="stroke: light-dark(rgb(221, 53, 34), rgb(255, 133, 117));"/></g><g><g transform="translate(-0.5 -0.5)"><switch><foreignObject style="overflow: visible; text-align: left;" pointer-events="none" width="100%" height="100%" requiredFeatures="http://www.w3.org/TR/SVG11/feature#Extensibility"><div xmlns="http://www.w3.org/1999/xhtml" style="display: flex; align-items: unsafe flex-start; justify-content: unsafe center; width: 128px; height: 1px; padding-top: 700px; margin-left: 281px;"><div style="box-sizing: border-box; font-size: 0; text-align: center; color: #DD3522; "><div style="display: inline-block; font-size: 12px; font-family: &quot;Helvetica&quot;; color: light-dark(#DD3522, #ff8575); line-height: 1.2; pointer-events: all; white-space: normal; word-wrap: normal; ">Security group</div></div></div></foreignObject><text x="345" y="712" fill="#DD3522" font-family="&quot;Helvetica&quot;" font-size="12px" text-anchor="middle">Security group</text></switch></g></g><g><path d="M 550 643 L 850 643 L 850 863 L 550 863 Z" fill="#e6f6f7" stroke="none" pointer-events="none" style="fill: light-dark(rgb(230, 246, 247), rgb(18, 31, 32));"/><path d="M 550 643 L 575 643 L 575 668 L 550 668 Z M 562.52 646.21 C 561.4 646.21 560.31 646.63 559.49 647.39 C 558.67 648.11 558.2 649.15 558.2 650.24 L 558.2 652.78 L 555.89 652.78 C 555.8 652.78 555.7 652.82 555.64 652.89 C 555.57 652.95 555.54 653.04 555.54 653.13 L 555.54 664.43 C 555.54 664.63 555.7 664.79 555.89 664.79 L 569.11 664.79 C 569.3 664.79 569.46 664.63 569.46 664.43 L 569.46 653.15 C 569.47 653.06 569.43 652.97 569.36 652.9 C 569.3 652.83 569.21 652.79 569.11 652.79 L 566.81 652.79 L 566.81 650.29 C 566.8 649.21 566.35 648.18 565.56 647.44 C 564.74 646.65 563.65 646.22 562.52 646.21 Z M 562.51 646.93 C 563.46 646.92 564.37 647.28 565.06 647.93 C 565.72 648.54 566.1 649.4 566.1 650.29 L 566.1 652.79 L 558.88 652.79 L 558.89 650.26 C 558.9 649.36 559.28 648.51 559.95 647.91 C 560.65 647.27 561.57 646.92 562.51 646.93 Z M 556.24 653.5 L 568.76 653.5 L 568.75 664.07 L 556.24 664.07 Z M 562.51 655.74 C 561.48 655.73 560.61 656.51 560.51 657.53 C 560.42 658.56 561.13 659.48 562.14 659.66 L 562.14 662.44 L 562.86 662.44 L 562.86 659.66 C 563.79 659.49 564.47 658.67 564.48 657.72 C 564.48 656.63 563.6 655.75 562.51 655.74 Z M 562.39 656.45 C 562.43 656.45 562.47 656.45 562.51 656.46 C 562.84 656.46 563.16 656.59 563.4 656.83 C 563.64 657.07 563.77 657.39 563.76 657.72 C 563.77 658.06 563.64 658.38 563.4 658.61 C 563.16 658.85 562.84 658.98 562.51 658.98 C 562.04 659.02 561.6 658.8 561.34 658.42 C 561.08 658.03 561.06 657.53 561.28 657.12 C 561.5 656.71 561.93 656.46 562.39 656.45 Z" fill="#00a4a6" stroke="none" pointer-events="all" style="fill: light-dark(rgb(0, 164, 166), rgb(15, 156, 158));"/></g><g><g transform="translate(-0.5 -0.5)"><switch><foreignObject style="overflow: visible; text-align: left;" pointer-events="none" width="100%" height="100%" requiredFeatures="http://www.w3.org/TR/SVG11/feature#Extensibility"><div xmlns="http://www.w3.org/1999/xhtml" style="display: flex; align-items: unsafe flex-start; justify-content: unsafe flex-start; width: 268px; height: 1px; padding-top: 650px; margin-left: 582px;"><div style="box-sizing: border-box; font-size: 0; text-align: left; color: #147EBA; "><div style="display: inline-block; font-size: 15px; font-family: &quot;Helvetica&quot;; color: light-dark(#147EBA, #45a0d4); line-height: 1.2; pointer-events: all; white-space: normal; word-wrap: normal; ">aws-study-private-subnet-1c<br />(10.0.11.0/24)</div></div></div></foreignObject><text x="582" y="665" fill="#147EBA" font-family="&quot;Helvetica&quot;" font-size="15px">aws-study-private-subnet-1c...</text></switch></g></g><g><path d="M 295 723 L 395 723 L 395 823 L 295 823 Z" fill="#c925d1" stroke="none" pointer-events="all" style="fill: light-dark(rgb(201, 37, 209), rgb(255, 124, 255));"/><path d="M 309.88 735.86 L 323.15 749.13 L 321.13 751.15 L 307.86 737.88 L 307.86 748.71 L 305 748.71 L 305 734.43 C 305 733.64 305.64 733 306.43 733 L 320.71 733 L 320.71 735.86 Z M 385 734.43 L 385 748.71 L 382.14 748.71 L 382.14 737.88 L 368.87 751.15 L 366.85 749.13 L 380.12 735.86 L 369.29 735.86 L 369.29 733 L 383.57 733 C 384.36 733 385 733.64 385 734.43 Z M 382.14 797.29 L 385 797.29 L 385 811.57 C 385 812.36 384.36 813 383.57 813 L 369.29 813 L 369.29 810.14 L 380.12 810.14 L 366.85 796.87 L 368.87 794.85 L 382.14 808.12 Z M 381.43 771.88 C 381.43 767.13 375.95 762.45 366.79 759.35 L 367.7 756.64 C 378.24 760.21 384.29 765.76 384.29 771.88 C 384.29 777.99 378.24 783.55 367.7 787.11 L 366.78 784.41 C 375.95 781.3 381.43 776.62 381.43 771.88 Z M 308.65 771.88 C 308.65 776.42 313.78 780.98 322.36 784.08 L 321.39 786.76 C 311.48 783.19 305.79 777.76 305.79 771.88 C 305.79 765.99 311.48 760.57 321.39 756.99 L 322.36 759.68 C 313.78 762.77 308.65 767.33 308.65 771.88 Z M 323.15 796.87 L 309.88 810.14 L 320.71 810.14 L 320.71 813 L 306.43 813 C 305.64 813 305 812.36 305 811.57 L 305 797.29 L 307.86 797.29 L 307.86 808.12 L 321.13 794.85 Z M 345 760.55 C 334.79 760.55 329.29 757.91 329.29 756.84 C 329.29 755.76 334.79 753.12 345 753.12 C 355.21 753.12 360.71 755.76 360.71 756.84 C 360.71 757.91 355.21 760.55 345 760.55 Z M 345.04 771.62 C 335.27 771.62 329.29 768.95 329.29 767.49 L 329.29 760.55 C 332.8 762.49 339.05 763.41 345 763.41 C 350.95 763.41 357.2 762.49 360.71 760.55 L 360.71 767.49 C 360.71 768.95 354.76 771.62 345.04 771.62 Z M 345.04 782.52 C 335.27 782.52 329.29 779.85 329.29 778.4 L 329.29 771.37 C 332.76 773.42 338.92 774.47 345.04 774.47 C 351.13 774.47 357.25 773.42 360.71 771.38 L 360.71 778.4 C 360.71 779.86 354.76 782.52 345.04 782.52 Z M 345 792.31 C 334.83 792.31 329.29 789.58 329.29 788.17 L 329.29 782.28 C 332.76 784.32 338.92 785.38 345.04 785.38 C 351.13 785.38 357.25 784.33 360.71 782.29 L 360.71 788.17 C 360.71 789.58 355.17 792.31 345 792.31 Z M 345 750.27 C 336.06 750.27 326.43 752.32 326.43 756.84 L 326.43 788.17 C 326.43 792.77 335.77 795.17 345 795.17 C 354.23 795.17 363.57 792.77 363.57 788.17 L 363.57 756.84 C 363.57 752.32 353.94 750.27 345 750.27 Z" fill="#ffffff" stroke="none" pointer-events="all" style="fill: light-dark(rgb(255, 255, 255), rgb(18, 18, 18));"/></g><g><g transform="translate(-0.5 -0.5)"><switch><foreignObject style="overflow: visible; text-align: left;" pointer-events="none" width="100%" height="100%" requiredFeatures="http://www.w3.org/TR/SVG11/feature#Extensibility"><div xmlns="http://www.w3.org/1999/xhtml" style="display: flex; align-items: unsafe flex-start; justify-content: unsafe center; width: 1px; height: 1px; padding-top: 830px; margin-left: 345px;"><div style="box-sizing: border-box; font-size: 0; text-align: center; color: #232F3E; "><div style="display: inline-block; font-size: 15px; font-family: &quot;Helvetica&quot;; color: light-dark(#232F3E, #bdc7d4); line-height: 1.2; pointer-events: all; white-space: nowrap; ">aws-study-rds</div></div></div></foreignObject><text x="345" y="845" fill="#232F3E" font-family="&quot;Helvetica&quot;" font-size="15px" text-anchor="middle">aws-study-rds</text></switch></g></g><g><path d="M 800.54 37.56 C 800.54 30.93 806.03 25.55 812.77 25.55 C 819.51 25.55 824.99 30.93 824.99 37.56 C 824.99 44.18 819.51 49.57 812.77 49.57 C 806.03 49.57 800.54 44.18 800.54 37.56 Z M 826.73 53.58 C 825.26 52.66 823.71 51.91 822.11 51.3 C 826.59 48.33 829.54 43.28 829.54 37.56 C 829.54 28.43 822.02 21 812.77 21 C 803.52 21 796 28.43 796 37.56 C 796 43.26 798.94 48.3 803.4 51.28 C 800.49 52.38 797.75 53.99 795.34 56.06 L 798.3 59.51 C 802.35 56.03 807.48 54.12 812.73 54.12 C 816.82 54.12 820.84 55.27 824.34 57.44 C 830.57 61.31 834.65 68.1 835.35 75.55 L 812.73 75.55 L 812.73 80.09 L 837.73 80.09 C 838.98 80.09 840 79.08 840 77.82 C 840 67.95 834.92 58.66 826.73 53.58 Z M 755.09 37.56 C 755.09 30.93 760.57 25.55 767.32 25.55 C 774.06 25.55 779.54 30.93 779.54 37.56 C 779.54 44.18 774.06 49.57 767.32 49.57 C 760.57 49.57 755.09 44.18 755.09 37.56 Z M 767.27 75.55 L 744.65 75.55 C 745.75 63.54 755.48 54.12 767.27 54.12 C 771.37 54.12 775.38 55.27 778.88 57.44 C 779.87 58.05 780.81 58.75 781.7 59.51 L 784.66 56.06 C 783.6 55.15 782.46 54.31 781.28 53.58 C 779.81 52.66 778.26 51.91 776.65 51.3 C 781.13 48.33 784.08 43.28 784.08 37.56 C 784.08 28.43 776.56 21 767.32 21 C 758.07 21 750.54 28.43 750.54 37.56 C 750.54 43.28 753.49 48.33 757.97 51.3 C 747.5 55.25 740 65.63 740 77.82 C 740 79.08 741.02 80.09 742.27 80.09 L 767.27 80.09 Z M 767.38 116.45 C 768.48 104.45 778.2 95.03 790 95.03 C 794.1 95.03 798.11 96.17 801.61 98.35 C 807.84 102.22 811.93 109.01 812.62 116.45 Z M 777.82 78.47 C 777.82 71.84 783.3 66.45 790.04 66.45 C 796.78 66.45 802.27 71.84 802.27 78.47 C 802.27 85.09 796.78 90.48 790.04 90.48 C 783.3 90.48 777.82 85.09 777.82 78.47 Z M 804.01 94.49 C 802.54 93.57 800.98 92.82 799.38 92.21 C 803.86 89.23 806.81 84.19 806.81 78.47 C 806.81 69.34 799.29 61.91 790.04 61.91 C 780.8 61.91 773.27 69.34 773.27 78.47 C 773.27 84.18 776.22 89.23 780.7 92.21 C 770.23 96.16 762.73 106.54 762.73 118.73 C 762.73 119.98 763.75 121 765 121 L 815 121 C 816.26 121 817.27 119.98 817.27 118.73 C 817.27 108.86 812.19 99.57 804.01 94.49 Z" fill="#232f3d" stroke="none" pointer-events="all" style="fill: light-dark(rgb(35, 47, 61), rgb(190, 200, 212));"/></g><g><g transform="translate(-0.5 -0.5)"><switch><foreignObject style="overflow: visible; text-align: left;" pointer-events="none" width="100%" height="100%" requiredFeatures="http://www.w3.org/TR/SVG11/feature#Extensibility"><div xmlns="http://www.w3.org/1999/xhtml" style="display: flex; align-items: unsafe flex-end; justify-content: unsafe center; width: 1px; height: 1px; padding-top: 18px; margin-left: 790px;"><div style="box-sizing: border-box; font-size: 0; text-align: center; color: #232F3E; "><div style="display: inline-block; font-size: 12px; font-family: &quot;Helvetica&quot;; color: light-dark(#232F3E, #bdc7d4); line-height: 1.2; pointer-events: all; white-space: nowrap; "><font style="font-size: 15px;">Users</font></div></div></div></foreignObject><text x="790" y="18" fill="#232F3E" font-family="&quot;Helvetica&quot;" font-size="12px" text-anchor="middle">Users</text></switch></g></g><g><path d="M 576.37 71 L 733.63 71" fill="none" stroke="#000000" stroke-miterlimit="10" pointer-events="stroke" style="stroke: light-dark(rgb(0, 0, 0), rgb(255, 255, 255));"/><path d="M 571.12 71 L 578.12 67.5 L 576.37 71 L 578.12 74.5 Z" fill="#000000" stroke="#000000" stroke-miterlimit="10" pointer-events="all" style="fill: light-dark(rgb(0, 0, 0), rgb(255, 255, 255)); stroke: light-dark(rgb(0, 0, 0), rgb(255, 255, 255));"/><path d="M 738.88 71 L 731.88 74.5 L 733.63 71 L 731.88 67.5 Z" fill="#000000" stroke="#000000" stroke-miterlimit="10" pointer-events="all" style="fill: light-dark(rgb(0, 0, 0), rgb(255, 255, 255)); stroke: light-dark(rgb(0, 0, 0), rgb(255, 255, 255));"/></g><g><path d="M 520 323 L 520 474.77" fill="none" stroke="#dd3522" stroke-width="2" stroke-miterlimit="10" pointer-events="stroke" style="stroke: light-dark(rgb(221, 53, 34), rgb(237, 237, 237));"/><path d="M 520 480.77 L 516 472.77 L 520 474.77 L 524 472.77 Z" fill="#dd3522" stroke="#dd3522" stroke-width="2" stroke-miterlimit="10" pointer-events="all" style="fill: light-dark(rgb(221, 53, 34), rgb(237, 237, 237)); stroke: light-dark(rgb(221, 53, 34), rgb(237, 237, 237));"/></g><g><path d="M 470 533 L 403.24 533" fill="none" stroke="#dd3522" stroke-width="2" stroke-miterlimit="10" pointer-events="stroke" style="stroke: light-dark(rgb(221, 53, 34), rgb(237, 237, 237));"/><path d="M 397.24 533 L 405.24 529 L 403.24 533 L 405.24 537 Z" fill="#dd3522" stroke="#dd3522" stroke-width="2" stroke-miterlimit="10" pointer-events="all" style="fill: light-dark(rgb(221, 53, 34), rgb(237, 237, 237)); stroke: light-dark(rgb(221, 53, 34), rgb(237, 237, 237));"/></g><g><path d="M 345.32 583 L 345.99 687.8" fill="none" stroke="#dd3522" stroke-width="2" stroke-miterlimit="10" pointer-events="stroke" style="stroke: light-dark(rgb(221, 53, 34), rgb(255, 133, 117));"/><path d="M 346.03 693.8 L 341.97 685.83 L 345.99 687.8 L 349.97 685.78 Z" fill="#dd3522" stroke="#dd3522" stroke-width="2" stroke-miterlimit="10" pointer-events="all" style="fill: light-dark(rgb(221, 53, 34), rgb(255, 133, 117)); stroke: light-dark(rgb(221, 53, 34), rgb(255, 133, 117));"/></g><g><path d="M 378.65 483 L 481.75 329.83" fill="none" stroke="#dd3522" stroke-width="2" stroke-miterlimit="10" pointer-events="stroke" style="stroke: light-dark(rgb(221, 53, 34), rgb(237, 237, 237));"/><path d="M 485.1 324.85 L 483.95 333.72 L 481.75 329.83 L 477.31 329.26 Z" fill="#dd3522" stroke="#dd3522" stroke-width="2" stroke-miterlimit="10" pointer-events="all" style="fill: light-dark(rgb(221, 53, 34), rgb(237, 237, 237)); stroke: light-dark(rgb(221, 53, 34), rgb(237, 237, 237));"/></g><g><path d="M 295 483 L 395 483 L 395 583 L 295 583 Z" fill="#ed7100" stroke="none" pointer-events="all" style="fill: light-dark(rgb(237, 113, 0), rgb(216, 109, 12));"/><path d="M 326.43 551.57 L 362.14 551.57 L 362.14 515.86 L 326.43 515.86 Z M 365 515.86 L 370.71 515.86 L 370.71 518.71 L 365 518.71 L 365 524.43 L 370.71 524.43 L 370.71 527.29 L 365 527.29 L 365 531.57 L 370.71 531.57 L 370.71 534.43 L 365 534.43 L 365 540.14 L 370.71 540.14 L 370.71 543 L 365 543 L 365 548.71 L 370.71 548.71 L 370.71 551.57 L 365 551.57 L 365 551.77 C 365 553.23 363.81 554.43 362.34 554.43 L 362.14 554.43 L 362.14 560.14 L 359.29 560.14 L 359.29 554.43 L 353.57 554.43 L 353.57 560.14 L 350.71 560.14 L 350.71 554.43 L 346.43 554.43 L 346.43 560.14 L 343.57 560.14 L 343.57 554.43 L 337.86 554.43 L 337.86 560.14 L 335 560.14 L 335 554.43 L 329.29 554.43 L 329.29 560.14 L 326.43 560.14 L 326.43 554.43 L 326.23 554.43 C 324.77 554.43 323.57 553.23 323.57 551.77 L 323.57 551.57 L 319.29 551.57 L 319.29 548.71 L 323.57 548.71 L 323.57 543 L 319.29 543 L 319.29 540.14 L 323.57 540.14 L 323.57 534.43 L 319.29 534.43 L 319.29 531.57 L 323.57 531.57 L 323.57 527.29 L 319.29 527.29 L 319.29 524.43 L 323.57 524.43 L 323.57 518.71 L 319.29 518.71 L 319.29 515.86 L 323.57 515.86 L 323.57 515.66 C 323.57 514.19 324.77 513 326.23 513 L 326.43 513 L 326.43 507.29 L 329.29 507.29 L 329.29 513 L 335 513 L 335 507.29 L 337.86 507.29 L 337.86 513 L 343.57 513 L 343.57 507.29 L 346.43 507.29 L 346.43 513 L 350.71 513 L 350.71 507.29 L 353.57 507.29 L 353.57 513 L 359.29 513 L 359.29 507.29 L 362.14 507.29 L 362.14 513 L 362.34 513 C 363.81 513 365 514.19 365 515.66 Z M 346.43 569.97 C 346.43 570.06 346.35 570.14 346.25 570.14 L 308.03 570.14 C 307.94 570.14 307.86 570.06 307.86 569.97 L 307.86 531.75 C 307.86 531.65 307.94 531.57 308.03 531.57 L 316.43 531.57 L 316.43 528.71 L 308.03 528.71 C 306.36 528.71 305 530.08 305 531.75 L 305 569.97 C 305 571.64 306.36 573 308.03 573 L 346.25 573 C 347.92 573 349.29 571.64 349.29 569.97 L 349.29 563 L 346.43 563 Z M 385 496.03 L 385 534.25 C 385 535.92 383.64 537.29 381.97 537.29 L 373.57 537.29 L 373.57 534.43 L 381.97 534.43 C 382.06 534.43 382.14 534.35 382.14 534.25 L 382.14 496.03 C 382.14 495.94 382.06 495.86 381.97 495.86 L 343.75 495.86 C 343.65 495.86 343.57 495.94 343.57 496.03 L 343.57 504.43 L 340.71 504.43 L 340.71 496.03 C 340.71 494.36 342.08 493 343.75 493 L 381.97 493 C 383.64 493 385 494.36 385 496.03 Z" fill="#ffffff" stroke="none" pointer-events="all" style="fill: light-dark(rgb(255, 255, 255), rgb(18, 18, 18));"/></g><g><g transform="translate(-0.5 -0.5)"><switch><foreignObject style="overflow: visible; text-align: left;" pointer-events="none" width="100%" height="100%" requiredFeatures="http://www.w3.org/TR/SVG11/feature#Extensibility"><div xmlns="http://www.w3.org/1999/xhtml" style="display: flex; align-items: unsafe flex-start; justify-content: unsafe center; width: 98px; height: 1px; padding-top: 590px; margin-left: 296px;"><div style="box-sizing: border-box; font-size: 0; text-align: center; color: #232F3E; background-color: #ffffff; "><div style="display: inline-block; font-size: 15px; font-family: &quot;Helvetica&quot;; color: light-dark(#232F3E, #bdc7d4); line-height: 1.2; pointer-events: all; background-color: light-dark(#ffffff, var(--ge-dark-color, #121212)); white-space: normal; word-wrap: normal; ">aws-study-ec2</div></div></div></foreignObject><text x="345" y="605" fill="#232F3E" font-family="&quot;Helvetica&quot;" font-size="15px" text-anchor="middle">aws-study-ec2</text></switch></g></g><g><rect x="470" y="223" width="100" height="100" fill="none" stroke="none" pointer-events="all"/><path d="M 541.58 298.56 L 538.17 298.56 L 538.17 258.31 C 538.17 257.41 537.65 256.6 536.83 256.23 L 536.62 256.13 C 532.05 254.07 527.31 251.93 520.51 251.93 C 513.39 251.93 508.17 254.23 503.01 256.79 C 502.24 257.18 501.75 257.97 501.75 258.83 L 501.75 298.56 L 498.42 298.56 L 498.42 255.6 C 503.96 251.09 511.95 248.52 520.53 248.52 C 528.5 248.52 536.1 250.79 541.58 254.78 Z M 520.53 243.96 C 510.45 243.96 501.01 247.2 494.63 252.83 C 494.14 253.27 493.86 253.89 493.86 254.54 L 493.86 300.84 C 493.86 302.1 494.88 303.12 496.14 303.12 L 504.03 303.12 C 505.29 303.12 506.3 302.1 506.3 300.84 L 506.3 260.25 C 510.67 258.14 514.91 256.49 520.51 256.49 C 525.82 256.49 529.69 258.02 533.62 259.78 L 533.62 300.84 C 533.62 302.1 534.63 303.12 535.89 303.12 L 543.86 303.12 C 545.12 303.12 546.14 302.1 546.14 300.84 L 546.14 253.65 C 546.14 252.96 545.82 252.3 545.28 251.87 C 538.96 246.85 529.94 243.96 520.53 243.96 Z M 520 318.44 C 494.94 318.44 474.55 298.06 474.55 273 C 474.55 247.94 494.94 227.56 520 227.56 C 545.06 227.56 565.45 247.94 565.45 273 C 565.45 298.06 545.06 318.44 520 318.44 Z M 520 223 C 492.43 223 470 245.43 470 273 C 470 300.57 492.43 323 520 323 C 547.57 323 570 300.57 570 273 C 570 245.43 547.57 223 520 223 Z" fill="#8c4fff" stroke="none" pointer-events="all" style="fill: light-dark(rgb(140, 79, 255), rgb(177, 125, 255));"/></g><g><g transform="translate(-0.5 -0.5)"><switch><foreignObject style="overflow: visible; text-align: left;" pointer-events="none" width="100%" height="100%" requiredFeatures="http://www.w3.org/TR/SVG11/feature#Extensibility"><div xmlns="http://www.w3.org/1999/xhtml" style="display: flex; align-items: unsafe flex-start; justify-content: unsafe center; width: 98px; height: 1px; padding-top: 333px; margin-left: 471px;"><div style="box-sizing: border-box; font-size: 0; text-align: center; color: #232F3E; background-color: #ffffff; "><div style="display: inline-block; font-size: 12px; font-family: &quot;Helvetica&quot;; color: light-dark(#232F3E, #bdc7d4); line-height: 1.2; pointer-events: all; background-color: light-dark(#ffffff, var(--ge-dark-color, #121212)); white-space: normal; word-wrap: normal; "><font style="font-size: 15px; background-color: light-dark(#ffffff, var(--ge-dark-color, #121212));">aws-study-igw</font></div></div></div></foreignObject><text x="520" y="345" fill="#232F3E" font-family="&quot;Helvetica&quot;" font-size="12px" text-anchor="middle">aws-study-igw</text></switch></g></g><g><path d="M 544.02 85.64 L 535.86 93.8 L 535.86 67.41 L 531.32 67.41 L 531.32 93.55 L 523.5 85.61 L 520.27 88.8 L 532.07 100.79 C 532.49 101.22 533.07 101.46 533.68 101.46 L 533.69 101.46 C 534.29 101.46 534.87 101.22 535.29 100.8 L 547.24 88.86 Z M 516.22 80.95 L 519.43 77.74 L 507.49 65.8 C 507.07 65.37 506.49 65.13 505.89 65.13 L 505.88 65.13 C 505.27 65.14 504.69 65.38 504.27 65.81 L 492.46 77.8 L 495.7 80.99 L 503.52 73.05 L 503.52 103.28 L 508.06 103.28 L 508.06 72.79 Z M 511.64 103.32 L 527.69 103.34 L 527.7 98.8 L 511.65 98.78 Z M 570 84.15 C 570 89.8 568.29 94.36 564.91 97.72 C 559.34 103.25 551.26 103.36 550.63 103.36 L 550.6 103.36 L 539.78 103.35 L 539.78 98.81 L 550.61 98.82 C 550.7 98.82 557.42 98.77 561.73 94.47 C 564.2 92 565.46 88.53 565.46 84.15 C 565.46 81.46 564.72 77.45 558.35 73.54 C 555 71.49 551.86 70.81 550.67 70.62 C 549.47 70.42 548.64 69.31 548.78 68.11 C 548.38 63.35 546.15 60.02 542.64 58.96 C 539.61 58.04 536.37 59.11 534.36 61.69 C 533.86 62.34 533.06 62.68 532.23 62.55 C 531.41 62.42 530.73 61.87 530.44 61.09 C 529.04 57.31 527.01 54.14 524.41 51.65 C 521.21 48.59 512.42 42 499.99 47.02 C 492.87 49.9 487.29 58.16 487.29 65.83 C 487.29 66.69 487.34 67.55 487.45 68.38 C 487.59 69.48 486.91 70.52 485.86 70.84 C 485.77 70.87 485.68 70.89 485.59 70.91 C 481.4 71.96 474.54 75.12 474.54 84.53 C 474.54 91.67 478.63 95.62 482.06 97.68 C 483.23 98.38 484.58 98.75 485.97 98.76 L 499.94 98.77 L 499.93 103.31 L 485.96 103.3 C 483.75 103.3 481.59 102.7 479.72 101.57 C 476.09 99.4 470 94.29 470 84.53 C 470 76.09 474.73 69.66 482.77 67 C 482.75 66.61 482.74 66.22 482.74 65.83 C 482.74 56.28 489.43 46.39 498.29 42.81 C 508.62 38.64 519.55 40.72 527.55 48.37 C 529.9 50.61 531.85 53.3 533.36 56.4 C 536.4 54.2 540.27 53.5 543.96 54.61 C 548.93 56.12 552.3 60.51 553.17 66.5 C 555.74 67.14 558.41 68.25 560.72 69.67 C 566.97 73.49 570 78.23 570 84.15 Z" fill="#232f3d" stroke="none" pointer-events="all" style="fill: light-dark(rgb(35, 47, 61), rgb(190, 200, 212));"/></g><g><g transform="translate(-0.5 -0.5)"><switch><foreignObject style="overflow: visible; text-align: left;" pointer-events="none" width="100%" height="100%" requiredFeatures="http://www.w3.org/TR/SVG11/feature#Extensibility"><div xmlns="http://www.w3.org/1999/xhtml" style="display: flex; align-items: unsafe flex-end; justify-content: unsafe center; width: 1px; height: 1px; padding-top: 18px; margin-left: 520px;"><div style="box-sizing: border-box; font-size: 0; text-align: center; color: #232F3E; "><div style="display: inline-block; font-size: 12px; font-family: &quot;Helvetica&quot;; color: light-dark(#232F3E, #bdc7d4); line-height: 1.2; pointer-events: all; white-space: nowrap; "><font style="font-size: 15px;">Internet</font></div></div></div></foreignObject><text x="520" y="18" fill="#232F3E" font-family="&quot;Helvetica&quot;" font-size="12px" text-anchor="middle">Internet</text></switch></g></g><g><path d="M 520 216.63 L 520 109.73" fill="none" stroke="#000000" stroke-miterlimit="10" pointer-events="stroke" style="stroke: light-dark(rgb(0, 0, 0), rgb(255, 255, 255));"/><path d="M 520 221.88 L 516.5 214.88 L 520 216.63 L 523.5 214.88 Z" fill="#000000" stroke="#000000" stroke-miterlimit="10" pointer-events="all" style="fill: light-dark(rgb(0, 0, 0), rgb(255, 255, 255)); stroke: light-dark(rgb(0, 0, 0), rgb(255, 255, 255));"/><path d="M 520 104.48 L 523.5 111.48 L 520 109.73 L 516.5 111.48 Z" fill="#000000" stroke="#000000" stroke-miterlimit="10" pointer-events="all" style="fill: light-dark(rgb(0, 0, 0), rgb(255, 255, 255)); stroke: light-dark(rgb(0, 0, 0), rgb(255, 255, 255));"/></g><g><rect x="390" y="543" width="60" height="20" rx="3" ry="3" fill="#ffffff" stroke="#000000" pointer-events="all" style="fill: light-dark(#ffffff, var(--ge-dark-color, #121212)); stroke: light-dark(rgb(0, 0, 0), rgb(255, 255, 255));"/></g><g><g transform="translate(-0.5 -0.5)"><switch><foreignObject style="overflow: visible; text-align: left;" pointer-events="none" width="100%" height="100%" requiredFeatures="http://www.w3.org/TR/SVG11/feature#Extensibility"><div xmlns="http://www.w3.org/1999/xhtml" style="display: flex; align-items: unsafe center; justify-content: unsafe center; width: 58px; height: 1px; padding-top: 553px; margin-left: 391px;"><div style="box-sizing: border-box; font-size: 0; text-align: center; color: #000000; "><div style="display: inline-block; font-size: 12px; font-family: &quot;Helvetica&quot;; color: light-dark(#000000, #ffffff); line-height: 1.2; pointer-events: all; white-space: normal; word-wrap: normal; ">port 8080</div></div></div></foreignObject><text x="420" y="557" fill="light-dark(#000000, #ffffff)" font-family="&quot;Helvetica&quot;" font-size="12px" text-anchor="middle">port 8080</text></switch></g></g><g><rect x="550" y="473" width="60" height="20" rx="3" ry="3" fill="#ffffff" stroke="#000000" pointer-events="all" style="fill: light-dark(#ffffff, var(--ge-dark-color, #121212)); stroke: light-dark(rgb(0, 0, 0), rgb(255, 255, 255));"/></g><g><g transform="translate(-0.5 -0.5)"><switch><foreignObject style="overflow: visible; text-align: left;" pointer-events="none" width="100%" height="100%" requiredFeatures="http://www.w3.org/TR/SVG11/feature#Extensibility"><div xmlns="http://www.w3.org/1999/xhtml" style="display: flex; align-items: unsafe center; justify-content: unsafe center; width: 58px; height: 1px; padding-top: 483px; margin-left: 551px;"><div style="box-sizing: border-box; font-size: 0; text-align: center; color: #000000; "><div style="display: inline-block; font-size: 12px; font-family: &quot;Helvetica&quot;; color: light-dark(#000000, #ffffff); line-height: 1.2; pointer-events: all; white-space: normal; word-wrap: normal; ">port 80</div></div></div></foreignObject><text x="580" y="487" fill="light-dark(#000000, #ffffff)" font-family="&quot;Helvetica&quot;" font-size="12px" text-anchor="middle">port 80</text></switch></g></g><g><rect x="240" y="543" width="60" height="20" rx="3" ry="3" fill="#ffffff" stroke="#000000" pointer-events="all" style="fill: light-dark(#ffffff, var(--ge-dark-color, #121212)); stroke: light-dark(rgb(0, 0, 0), rgb(255, 255, 255));"/></g><g><g transform="translate(-0.5 -0.5)"><switch><foreignObject style="overflow: visible; text-align: left;" pointer-events="none" width="100%" height="100%" requiredFeatures="http://www.w3.org/TR/SVG11/feature#Extensibility"><div xmlns="http://www.w3.org/1999/xhtml" style="display: flex; align-items: unsafe center; justify-content: unsafe center; width: 58px; height: 1px; padding-top: 553px; margin-left: 241px;"><div style="box-sizing: border-box; font-size: 0; text-align: center; color: #000000; "><div style="display: inline-block; font-size: 12px; font-family: &quot;Helvetica&quot;; color: light-dark(#000000, #ffffff); line-height: 1.2; pointer-events: all; white-space: normal; word-wrap: normal; ">port 22</div></div></div></foreignObject><text x="270" y="557" fill="light-dark(#000000, #ffffff)" font-family="&quot;Helvetica&quot;" font-size="12px" text-anchor="middle">port 22</text></switch></g></g><g><path d="M 100 532.78 L 269.76 532.04" fill="none" stroke="#dd3522" stroke-width="2" stroke-miterlimit="10" pointer-events="stroke" style="stroke: light-dark(rgb(221, 53, 34), rgb(237, 237, 237));"/><path d="M 275.76 532.01 L 267.78 536.04 L 269.76 532.04 L 267.75 528.04 Z" fill="#dd3522" stroke="#dd3522" stroke-width="2" stroke-miterlimit="10" pointer-events="all" style="fill: light-dark(rgb(221, 53, 34), rgb(237, 237, 237)); stroke: light-dark(rgb(221, 53, 34), rgb(237, 237, 237));"/></g><g><rect x="0" y="483" width="100" height="100" fill="none" stroke="none" pointer-events="all"/><path d="M 45.46 532.45 C 57.75 532.45 67.75 522.38 67.75 510 C 67.75 497.62 57.75 487.55 45.46 487.55 C 33.17 487.55 23.16 497.62 23.16 510 C 23.16 522.38 33.17 532.45 45.46 532.45 L 45.46 532.45 Z M 4.6 578.45 L 59.09 578.45 L 59.09 583 L 2.27 583 C 1.02 583 0 581.98 0 580.73 C 0 558.45 14.88 539.78 34.81 534.77 C 25.3 530.61 18.62 521.08 18.62 510 C 18.62 495.11 30.66 483 45.46 483 C 60.25 483 72.29 495.11 72.29 510 C 72.29 521.08 65.62 530.61 56.11 534.76 C 58.18 535.28 60.23 535.91 62.23 536.73 C 62.64 536.9 63.03 537.07 63.43 537.25 L 61.56 541.4 C 61.21 541.23 60.85 541.08 60.49 540.93 C 55.71 538.95 50.65 537.95 45.45 537.95 C 23.63 537.95 5.74 555.92 4.6 578.45 L 4.6 578.45 Z M 95.45 561.41 C 95.45 552.01 87.81 544.36 78.41 544.36 C 69.01 544.36 61.36 552.01 61.36 561.41 C 61.36 570.81 69.01 578.45 78.41 578.45 C 87.81 578.45 95.45 570.81 95.45 561.41 L 95.45 561.41 Z M 100 561.41 C 100 573.31 90.31 583 78.41 583 C 66.5 583 56.82 573.31 56.82 561.41 C 56.82 549.5 66.5 539.82 78.41 539.82 C 90.31 539.82 100 549.5 100 561.41 L 100 561.41 Z M 87.03 553.17 L 90.24 556.39 L 76.61 570.02 C 76.16 570.47 75.58 570.69 75 570.69 C 74.42 570.69 73.84 570.47 73.39 570.02 L 66.58 563.2 L 69.79 559.99 L 75 565.2 L 87.03 553.17 Z" fill="#232f3d" stroke="none" pointer-events="all" style="fill: light-dark(rgb(35, 47, 61), rgb(190, 200, 212));"/></g><g><g transform="translate(-0.5 -0.5)"><switch><foreignObject style="overflow: visible; text-align: left;" pointer-events="none" width="100%" height="100%" requiredFeatures="http://www.w3.org/TR/SVG11/feature#Extensibility"><div xmlns="http://www.w3.org/1999/xhtml" style="display: flex; align-items: unsafe flex-start; justify-content: unsafe center; width: 1px; height: 1px; padding-top: 590px; margin-left: 50px;"><div style="box-sizing: border-box; font-size: 0; text-align: center; color: #232F3E; "><div style="display: inline-block; font-size: 12px; font-family: &quot;Helvetica&quot;; color: light-dark(#232F3E, #bdc7d4); line-height: 1.2; pointer-events: all; white-space: nowrap; "><font style="font-size: 15px;">Administrator</font></div></div></div></foreignObject><text x="50" y="602" fill="#232F3E" font-family="&quot;Helvetica&quot;" font-size="12px" text-anchor="middle">Administrator</text></switch></g></g></g><switch><g requiredFeatures="http://www.w3.org/TR/SVG11/feature#Extensibility"/><a transform="translate(0,-5)" xlink:href="https://www.drawio.com/doc/faq/svg-export-text-problems" target="_blank"><text text-anchor="middle" font-size="10px" x="50%" y="100%">Text is not SVG - cannot display</text></a></switch></svg>